<?xml version="1.0" encoding="utf-8"?>
<!-- Generator: Adobe Illustrator 24.0.1, SVG Export Plug-In . SVG Version: 6.00 Build 0)  -->
<svg version="1.1" id="Layer_1" xmlns="http://www.w3.org/2000/svg" xmlns:xlink="http://www.w3.org/1999/xlink" x="0px" y="0px"
	 viewBox="0 0 2500 2025" style="enable-background:new 0 0 2500 2025;" xml:space="preserve">
<style type="text/css">
	.st0{fill:#3DDC84;}
</style>
<path d="M1.5-3.9c-0.8,0-1.4,0.7-1.4,1.5s0.6,1.5,1.4,1.5s1.4-0.7,1.4-1.5C2.9-3.3,2.3-3.9,1.5-3.9 M1.3-4.8c0.7,0,1.2,0.3,1.5,0.7
	v-0.6h1v4.7H3c-0.1,0-0.2-0.1-0.2-0.2v-0.4C2.5-0.3,2,0,1.3,0C0,0-0.9-1.1-0.9-2.4S0-4.8,1.3-4.8 M5-4.7h1v0.6
	c0.3-0.5,0.8-0.7,1.4-0.7c1.1,0,1.8,0.8,1.8,1.9v2.8H8.4c-0.1,0-0.2-0.1-0.2-0.2v-2.4c0-0.7-0.4-1.2-1-1.2C6.5-3.9,6-3.4,6-2.4v2.3
	H5.2C5.1-0.1,5-0.2,5-0.3L5-4.7z M12.4-3.9c-0.8,0-1.4,0.7-1.4,1.5s0.6,1.5,1.4,1.5c0.8,0,1.4-0.7,1.4-1.5S13.3-3.9,12.4-3.9
	 M12.3-4.8c0.7,0,1.2,0.3,1.5,0.7v-3h1v7H14c-0.1,0-0.2-0.1-0.2-0.2v-0.4C13.5-0.3,12.9,0,12.3,0C11,0,10-1.1,10-2.4
	S11-4.8,12.3-4.8 M15.9-4.7h1v0.8c0.2-0.5,0.7-0.9,1.2-0.9c0.1,0,0.3,0,0.4,0v1c-0.2-0.1-0.3-0.1-0.5-0.1c-0.6,0-1.1,0.5-1.1,1.4
	v2.3h-0.8c-0.1,0-0.2-0.1-0.2-0.2V-4.7z M21.3-1c0.8,0,1.4-0.6,1.4-1.5c0-0.8-0.6-1.5-1.4-1.5c-0.8,0-1.4,0.6-1.4,1.5
	C19.9-1.6,20.5-1,21.3-1 M21.3,0c-1.3,0-2.4-1.1-2.4-2.4c0-1.3,1.1-2.4,2.4-2.4c1.3,0,2.4,1.1,2.4,2.4C23.8-1.1,22.7,0,21.3,0
	C21.4,0,21.4,0,21.3,0 M24.6-4.7h1v4.7h-0.8c-0.1,0-0.2-0.1-0.2-0.2L24.6-4.7z M25.1-5.8c-0.4,0-0.7-0.3-0.7-0.7
	c0-0.4,0.3-0.7,0.7-0.7c0.4,0,0.7,0.3,0.7,0.7C25.8-6.1,25.5-5.8,25.1-5.8 M28.9-3.9c-0.8,0-1.4,0.7-1.4,1.5s0.6,1.5,1.4,1.5
	s1.4-0.7,1.4-1.5C30.3-3.3,29.7-3.9,28.9-3.9 M28.7-4.8c0.7,0,1.2,0.3,1.5,0.7v-3h1v7h-0.8c-0.1,0-0.2-0.1-0.2-0.2v-0.4
	C30-0.3,29.4,0,28.7,0c-1.3,0-2.2-1.1-2.2-2.4S27.4-4.8,28.7-4.8"/>
<path class="st0" d="M23-22.7l2.7-4.6c0.2-0.3,0.1-0.6-0.2-0.8c-0.3-0.1-0.6-0.1-0.8,0.2L22-23.2c-4.4-2-9.4-2-13.8,0l-2.7-4.7
	c-0.2-0.3-0.5-0.3-0.8-0.2c-0.3,0.2-0.3,0.5-0.2,0.8l2.7,4.6C2.7-20.2-0.5-15.5-0.9-10h32.1C30.8-15.5,27.6-20.2,23-22.7L23-22.7z
	 M7.7-14.6c-0.7,0-1.3-0.6-1.3-1.3c0-0.7,0.6-1.3,1.3-1.3s1.3,0.6,1.3,1.3c0,0,0,0,0,0C9.1-15.2,8.5-14.6,7.7-14.6z M22.6-14.6
	c-0.7,0-1.3-0.6-1.3-1.3c0-0.7,0.6-1.3,1.3-1.3s1.3,0.6,1.3,1.3C23.9-15.2,23.3-14.6,22.6-14.6L22.6-14.6z"/>
</svg>
