<?xml version="1.0" encoding="utf-8"?>
<!-- Generator: Adobe Illustrator 24.0.1, SVG Export Plug-In . SVG Version: 6.00 Build 0)  -->
<svg version="1.1" id="Layer_1" xmlns="http://www.w3.org/2000/svg" xmlns:xlink="http://www.w3.org/1999/xlink" x="0px" y="0px"
	 viewBox="0 0 2500 1465" style="enable-background:new 0 0 2500 1465;" xml:space="preserve">
<style type="text/css">
	.st0{fill:#252F3E;}
	.st1{fill-rule:evenodd;clip-rule:evenodd;fill:#FF9900;}
</style>
<path class="st0" d="M7.1-16.2c0,0.4,0,0.7,0.1,1c0.1,0.2,0.2,0.5,0.3,0.8c0.1,0.1,0.1,0.2,0.1,0.2c0,0.1-0.1,0.2-0.2,0.3l-0.7,0.5
	c-0.1,0.1-0.2,0.1-0.3,0.1c-0.1,0-0.2-0.1-0.3-0.2C6-13.7,5.8-13.8,5.7-14c-0.1-0.2-0.2-0.4-0.3-0.6c-0.8,1-1.9,1.5-3.2,1.5
	c-0.9,0-1.6-0.3-2.2-0.8c-0.5-0.5-0.8-1.2-0.8-2.1c0-0.9,0.3-1.7,1-2.2s1.5-0.8,2.6-0.8c0.4,0,0.7,0,1.1,0.1s0.8,0.1,1.2,0.2v-0.8
	c0-0.8-0.2-1.4-0.5-1.7c-0.3-0.3-0.9-0.5-1.8-0.5c-0.4,0-0.8,0-1.2,0.1c-0.4,0.1-0.8,0.2-1.2,0.4c-0.2,0.1-0.3,0.1-0.4,0.1
	s-0.1,0-0.2,0c-0.2,0-0.2-0.1-0.2-0.3V-22c0-0.2,0-0.3,0.1-0.4s0.2-0.2,0.3-0.2c0.4-0.2,0.8-0.4,1.4-0.5c0.5-0.1,1.1-0.2,1.7-0.2
	c1.3,0,2.2,0.3,2.8,0.9C6.7-21.8,7-20.9,7-19.7L7.1-16.2L7.1-16.2z M2.7-14.6c0.4,0,0.7-0.1,1.1-0.2s0.7-0.4,1-0.7
	c0.2-0.2,0.3-0.4,0.4-0.7s0.1-0.6,0.1-0.9v-0.5c-0.3-0.1-0.6-0.1-1-0.2s-0.7-0.1-1-0.1c-0.7,0-1.3,0.1-1.6,0.4s-0.5,0.7-0.5,1.2
	c0,0.5,0.1,0.9,0.4,1.1C1.8-14.7,2.2-14.6,2.7-14.6L2.7-14.6z M11.4-13.4c-0.2,0-0.3,0-0.4-0.1c-0.1-0.1-0.2-0.2-0.2-0.4l-2.5-8.4
	c-0.1-0.2-0.1-0.4-0.1-0.4c0-0.2,0.1-0.3,0.3-0.3h1.1c0.2,0,0.3,0,0.4,0.1c0.1,0.1,0.2,0.2,0.2,0.4l1.8,7.2l1.7-7.2
	c0.1-0.2,0.1-0.4,0.2-0.4C13.8-23,14-23,14.2-23H15c0.2,0,0.3,0,0.4,0.1c0.1,0.1,0.2,0.2,0.2,0.4l1.7,7.2l1.9-7.2
	c0.1-0.2,0.1-0.4,0.2-0.4c0.1-0.1,0.2-0.1,0.4-0.1h1c0.2,0,0.3,0.1,0.3,0.3c0,0.1,0,0.1,0,0.2c0,0.1,0,0.2-0.1,0.3l-2.6,8.4
	c-0.1,0.2-0.1,0.4-0.2,0.4s-0.2,0.1-0.4,0.1h-0.9c-0.2,0-0.3,0-0.4-0.1s-0.2-0.2-0.2-0.4l-1.7-7l-1.7,7c-0.1,0.2-0.1,0.4-0.2,0.4
	c-0.1,0.1-0.2,0.1-0.4,0.1H11.4z M25.3-13.1c-0.6,0-1.1-0.1-1.7-0.2c-0.5-0.1-1-0.3-1.2-0.4C22.2-13.8,22-13.9,22-14
	c0-0.1-0.1-0.2-0.1-0.3v-0.6c0-0.2,0.1-0.3,0.2-0.3c0.1,0,0.1,0,0.2,0s0.2,0.1,0.3,0.1c0.4,0.2,0.8,0.3,1.2,0.4
	c0.4,0.1,0.9,0.1,1.3,0.1c0.7,0,1.2-0.1,1.6-0.4c0.4-0.2,0.6-0.6,0.6-1c0-0.3-0.1-0.6-0.3-0.8c-0.2-0.2-0.6-0.4-1.1-0.6l-1.6-0.5
	c-0.8-0.2-1.4-0.6-1.7-1.1c-0.4-0.5-0.5-1-0.5-1.6c0-0.5,0.1-0.9,0.3-1.2c0.2-0.3,0.5-0.6,0.8-0.9c0.3-0.2,0.7-0.4,1.1-0.6
	c0.4-0.1,0.9-0.2,1.4-0.2c0.2,0,0.5,0,0.7,0c0.2,0,0.5,0.1,0.7,0.1c0.2,0.1,0.4,0.1,0.6,0.2c0.2,0.1,0.3,0.1,0.5,0.2
	c0.2,0.1,0.3,0.2,0.3,0.3c0.1,0.1,0.1,0.2,0.1,0.4v0.5c0,0.2-0.1,0.3-0.2,0.3c-0.1,0-0.2,0-0.4-0.1c-0.6-0.3-1.3-0.4-2.1-0.4
	c-0.6,0-1.1,0.1-1.4,0.3s-0.5,0.5-0.5,1c0,0.3,0.1,0.6,0.3,0.8s0.6,0.4,1.2,0.6l1.5,0.5c0.8,0.2,1.3,0.6,1.7,1
	c0.3,0.4,0.5,1,0.5,1.5c0,0.5-0.1,0.9-0.3,1.3c-0.2,0.4-0.5,0.7-0.8,1c-0.3,0.3-0.7,0.5-1.2,0.6C26.3-13.2,25.8-13.1,25.3-13.1
	L25.3-13.1z"/>
<g>
	<path class="st1" d="M27.3-7.9c-3.6,2.6-8.7,4-13.2,4C7.9-3.8,2.3-6.1-2-10c-0.3-0.3,0-0.7,0.4-0.5C3-7.8,8.6-6.2,14.5-6.2
		c3.9,0,8.3-0.8,12.3-2.5C27.4-8.9,27.9-8.3,27.3-7.9z"/>
	<path class="st1" d="M28.8-9.5c-0.5-0.6-3-0.3-4.2-0.1c-0.3,0-0.4-0.3-0.1-0.5c2-1.4,5.4-1,5.8-0.5c0.4,0.5-0.1,3.8-2,5.4
		C28-5,27.7-5.2,27.8-5.5C28.3-6.6,29.2-9,28.8-9.5z"/>
</g>
</svg>
