<svg id="Layer_1" data-name="Layer 1" xmlns="http://www.w3.org/2000/svg" xmlns:xlink="http://www.w3.org/1999/xlink" viewBox="0 0 45.10445 47.8"><defs><clipPath id="clip-path" transform="translate(0 48.4)"><rect x="38.3" y="-40.9" width="6.8" height="36" style="fill:none"/></clipPath><clipPath id="clip-path-2" transform="translate(0 48.4)"><rect y="-48.4" width="13.8" height="1.8" style="fill:none"/></clipPath><clipPath id="clip-path-3" transform="translate(0 48.4)"><rect x="9.3" y="-2.5" width="27.4" height="1.8" style="fill:none"/></clipPath></defs><title>bank</title><path d="M23-4.9V-40.7H4.3A3.37194,3.37194,0,0,0,.9-37.3V-4.9H23" transform="translate(0 48.4)" style="fill:#d9f3fd"/><path d="M11.9-27.9a2.58189,2.58189,0,0,1-2.6-2.6H11a.89626.89626,0,0,0,.9.9.89626.89626,0,0,0,.9-.9.89626.89626,0,0,0-.9-.9A2.58189,2.58189,0,0,1,9.3-34a2.58189,2.58189,0,0,1,2.6-2.6A2.52221,2.52221,0,0,1,14.5-34H12.8a.89626.89626,0,0,0-.9-.9.89626.89626,0,0,0-.9.9.89626.89626,0,0,0,.9.9,2.58189,2.58189,0,0,1,2.6,2.6,2.64744,2.64744,0,0,1-2.6,2.6" transform="translate(0 48.4)" style="fill:#f89d0f"/><path d="M12.8-35.6H11.1v-2.6h1.7v2.6" transform="translate(0 48.4)" style="fill:#f89d0f"/><path d="M12.8-26.2H11.1v-2.6h1.7v2.6" transform="translate(0 48.4)" style="fill:#f89d0f"/><path d="M7.7-31.3H6V-33H7.7v1.7" transform="translate(0 48.4)" style="fill:#f89d0f"/><path d="M17.9-31.3H16.2V-33h1.7v1.7" transform="translate(0 48.4)" style="fill:#f89d0f"/><path d="M17.9-22.8H6v-1.7H17.9v1.7" transform="translate(0 48.4)" style="fill:#a7e3f9"/><path d="M14.5-19.4H9.4v-1.7h5.1v1.7" transform="translate(0 48.4)" style="fill:#a7e3f9"/><path d="M18.3-14.3H6V-16H18.4v1.7" transform="translate(0 48.4)" style="fill:#a7e3f9"/><path d="M16.2-10.9H6v-1.7H16.2v1.7" transform="translate(0 48.4)" style="fill:#a7e3f9"/><path d="M14.5-7.5H6V-9.2h8.5v1.7" transform="translate(0 48.4)" style="fill:#a7e3f9"/><path d="M23-4.9H38.3V-40.7H23Z" transform="translate(0 48.4)" style="fill:#a7e3f9"/><g style="clip-path:url(#clip-path)"><path d="M41.7-40.7H38.3V-4.9h6.8V-37.3a3.31142,3.31142,0,0,0-3.4-3.4" transform="translate(0 48.4)" style="fill:#2d5cb3"/></g><path d="M39.2-28.8H37.5V-33h1.7v4.2" transform="translate(0 48.4)" style="fill:#100f0d"/><path d="M39.2-34.7H37.5v-1.7h1.7v1.7" transform="translate(0 48.4)" style="fill:#100f0d"/><path d="M26.4-17.6V-47.5H41.7v32.4H29.6l-3.2-2.5" transform="translate(0 48.4)" style="fill:#5ac69e"/><path d="M38.3-42.4a1.75238,1.75238,0,0,1-1.7-1.7H31.5a1.75238,1.75238,0,0,1-1.7,1.7v22.2a1.75238,1.75238,0,0,1,1.7,1.7h5.1a1.75238,1.75238,0,0,1,1.7-1.7V-42.4" transform="translate(0 48.4)" style="fill:#80d2a4"/><path d="M34.1-27.1a4.26818,4.26818,0,0,1-4.3-4.3,4.26818,4.26818,0,0,1,4.3-4.3,4.26818,4.26818,0,0,1,4.3,4.3,4.39873,4.39873,0,0,1-4.3,4.3" transform="translate(0 48.4)" style="fill:#38ad8a"/><path d="M34.9-34.7H33.2v-3.4h1.7v3.4" transform="translate(0 48.4)" style="fill:#38ad8a"/><path d="M33.2-24.5h1.7v-4.3H33.2Z" transform="translate(0 48.4)" style="fill:#38ad8a"/><path d="M23-43.3H11.9V-45H23v1.7" transform="translate(0 48.4)" style="fill:#206731"/><path d="M10.2-43.3H8.5V-45h1.7v1.7" transform="translate(0 48.4)" style="fill:#206731"/><g style="clip-path:url(#clip-path-2)"><path d="M13.6-46.7H0v-1.7H13.6v1.7" transform="translate(0 48.4)" style="fill:#206731"/></g><path d="M38.3-15.1H26.4v-2.5l3.2,2.5h8.7" transform="translate(0 48.4)" style="fill:#45a99f"/><path d="M34.9-27.2v-1.6H33.2v1.6a4.29893,4.29893,0,0,1-3.4-4.2,4.393,4.393,0,0,1,2.4-3.9l3.6,7.7a.97479.97479,0,0,1-.9.4" transform="translate(0 48.4)" style="fill:#287e59"/><path d="M34.9-24.5H33.2v-4.3h1.7v4.3" transform="translate(0 48.4)" style="fill:#287e59"/><path d="M34.1-11.7,23-20.2,11.9-11.7Z" transform="translate(0 48.4)" style="fill:#253e7b"/><path d="M34.1-4.9H11.9v3.4H34V-4.9" transform="translate(0 48.4)" style="fill:#253e7b"/><path d="M17.9-4.9v-6.8H14.5v6.8h3.4" transform="translate(0 48.4)" style="fill:#2b57ae"/><path d="M24.7-4.9v-6.8H21.3v6.8h3.4" transform="translate(0 48.4)" style="fill:#2b57ae"/><path d="M31.5-4.9v-6.8H28.1v6.8h3.4" transform="translate(0 48.4)" style="fill:#2b57ae"/><path d="M23.9-13.1H22.2v-1.7h1.7v1.7" transform="translate(0 48.4)" style="fill:#2b57ae"/><g style="clip-path:url(#clip-path-3)"><path d="M36.6-.6H9.4V-2.3H36.7V-.6" transform="translate(0 48.4)" style="fill:#2b57ae"/></g></svg>