<?xml version="1.0" encoding="utf-8"?>
<!-- Generator: Adobe Illustrator 24.0.1, SVG Export Plug-In . SVG Version: 6.00 Build 0)  -->
<svg version="1.1" id="Layer_1" xmlns="http://www.w3.org/2000/svg" xmlns:xlink="http://www.w3.org/1999/xlink" x="0px" y="0px"
	 viewBox="0 0 2500 2002" style="enable-background:new 0 0 2500 2002;" xml:space="preserve">
<style type="text/css">
	.st0{fill:#FFFFFF;}
	.st1{fill:#005385;}
	.st2{fill:#FF7021;}
</style>
<path class="st0" d="M20.8-11c-1,1.1-2.5,1.7-4.1,1.7c-1.6,0-3-0.6-4.1-1.6c-0.5-0.5-0.9-1.1-1.1-1.7c-0.2-0.6-0.3-1.3-0.3-1.9
	c0.1-0.6,0.2-1.3,0.6-1.8c0.3-0.6,0.7-1,1.2-1.5c1-0.8,2.3-1.3,3.6-1.3s2.6,0.4,3.6,1.3c0.5,0.4,0.9,0.9,1.2,1.5
	c0.3,0.6,0.5,1.2,0.6,1.8c0.1,0.7,0,1.3-0.3,1.9C21.7-12.1,21.3-11.5,20.8-11L20.8-11z"/>
<path class="st1" d="M13.4-14.6c0-0.9,0.5-1.6,1.1-2.1c0.6-0.5,1.5-0.8,2.4-0.8c0.9,0,1.7,0.3,2.4,0.8c0.6,0.5,1.1,1.3,1.1,2.1
	c0,0.9-0.3,1.7-0.9,2.3c-0.6,0.6-1.5,1-2.5,1s-1.9-0.4-2.5-1C13.7-12.9,13.3-13.7,13.4-14.6L13.4-14.6z"/>
<path class="st2" d="M7.9-12.9c0,0.3,0.1,1,0.3,1.5c0.3,1.1,0.9,2.1,1.7,3c0.8,0.9,1.8,1.6,3,2.1c1.2,0.5,2.5,0.8,3.9,0.8
	c1.4,0,2.7-0.3,3.9-0.8c1.2-0.5,2.2-1.2,3-2.2c0.8-0.9,1.4-1.9,1.7-3c0.2-0.5,0.3-1.1,0.3-1.7c0-0.5,0-1.1-0.1-1.6
	c-0.2-1.1-0.5-2.1-1.1-3c-0.5-0.8-1.2-1.6-2-2.2l0,0l-8-6.2c0,0,0,0,0,0c-0.5-0.4-1.4-0.4-2,0c-0.6,0.4-0.7,1.1-0.1,1.5l0,0l3.3,2.7
	l-10.2,0h0c-0.8,0-1.7,0.6-1.8,1.3c-0.2,0.7,0.4,1.3,1.3,1.3l0,0l5.2,0l-9.2,7.1c0,0,0,0,0,0C0-11.5-0.3-10.4,0.3-9.7
	C0.8-9,2-9,2.9-9.7l5-4.1C7.9-13.8,7.9-13.2,7.9-12.9L7.9-12.9z M20.8-11c-1,1.1-2.5,1.7-4.1,1.7c-1.6,0-3-0.6-4.1-1.6
	c-0.5-0.5-0.9-1.1-1.1-1.7c-0.2-0.6-0.3-1.3-0.3-1.9c0.1-0.6,0.2-1.3,0.6-1.8c0.3-0.6,0.7-1,1.2-1.5c1-0.8,2.3-1.3,3.6-1.3
	s2.6,0.4,3.6,1.3c0.5,0.4,0.9,0.9,1.2,1.5c0.3,0.6,0.5,1.2,0.6,1.8c0.1,0.7,0,1.3-0.3,1.9C21.7-12.1,21.3-11.5,20.8-11L20.8-11z"/>
</svg>
