<?xml version="1.0" encoding="utf-8"?>
<!-- Generator: Adobe Illustrator 24.0.1, SVG Export Plug-In . SVG Version: 6.00 Build 0)  -->
<svg version="1.1" id="Layer_1" xmlns="http://www.w3.org/2000/svg" xmlns:xlink="http://www.w3.org/1999/xlink" x="0px" y="0px"
	 viewBox="0 0 2113 2500" style="enable-background:new 0 0 2113 2500;" xml:space="preserve">
<style type="text/css">
	.st0{fill:#004482;}
	.st1{fill:#00599C;}
	.st2{fill:#659AD2;}
	.st3{fill:#FFFFFF;}
</style>
<path class="st0" d="M26.9-21.4c0-0.4-0.1-0.8-0.3-1.2c-0.2-0.4-0.5-0.6-0.9-0.8c-3.2-1.8-6.3-3.6-9.5-5.5c-0.9-0.5-1.7-0.5-2.5,0
	c-1.3,0.7-7.5,4.3-9.4,5.4c-0.8,0.4-1.1,1.1-1.1,2v11c0,0.4,0.1,0.8,0.3,1.2C3.7-8.9,4-8.6,4.3-8.4c1.9,1.1,8.2,4.7,9.4,5.4
	c0.8,0.5,1.7,0.5,2.5,0c3.2-1.8,6.3-3.6,9.5-5.5c0.4-0.2,0.7-0.5,0.9-0.9c0.2-0.4,0.3-0.8,0.3-1.2L26.9-21.4L26.9-21.4z"/>
<path class="st1" d="M26.9-10.4c0,0.4-0.1,0.8-0.3,1.2c0,0.1-0.1,0.2-0.2,0.2L15-15.9l10.7-7.5c0.4,0.2,0.7,0.5,0.9,0.8
	c0.2,0.4,0.3,0.8,0.3,1.2C26.9-17.7,26.9-10.4,26.9-10.4L26.9-10.4z"/>
<path class="st2" d="M26.6-22.6L3.5-9.2C3.3-9.6,3.2-10,3.2-10.4v-11c0-0.9,0.4-1.6,1.1-2c1.9-1.1,8.2-4.7,9.4-5.4
	c0.8-0.5,1.7-0.5,2.5,0c3.2,1.8,6.3,3.6,9.5,5.5C26.1-23.2,26.4-22.9,26.6-22.6z"/>
<path class="st3" d="M15.5-11.5c-1.6,0-3.1-0.9-3.8-2.3c0-0.1-0.1-0.1-0.1-0.2c-1-2.2-0.1-4.8,2-5.8c1.8-0.9,4-0.4,5.3,1.2
	c0.1,0.1,0.1,0.1,0.2,0.2c0,0,0.1,0.1,0.1,0.1l3.8-2.2c-0.1-0.1-0.2-0.3-0.3-0.4c-0.1-0.1-0.1-0.1-0.2-0.2
	c-2.9-3.8-8.4-4.5-12.2-1.6c-3.4,2.6-4.4,7.2-2.4,10.9c0,0.1,0.1,0.1,0.1,0.2c2.4,4.2,7.7,5.7,11.9,3.3c1.2-0.7,2.3-1.7,3-2.9
	l-3.7-2.3C18.3-12.2,17-11.5,15.5-11.5L15.5-11.5z"/>
</svg>
