<?xml version="1.0" encoding="utf-8"?>
<!-- Generator: Adobe Illustrator 24.0.1, SVG Export Plug-In . SVG Version: 6.00 Build 0)  -->
<svg version="1.1" id="Layer_1" xmlns="http://www.w3.org/2000/svg" xmlns:xlink="http://www.w3.org/1999/xlink" x="0px" y="0px"
	 viewBox="0 0 2222 2500" style="enable-background:new 0 0 2222 2500;" xml:space="preserve">
<style type="text/css">
	.st0{fill:#5C8DBC;}
	.st1{fill:#1A4674;}
	.st2{fill:#1B598E;}
	.st3{fill:#FFFFFF;}
</style>
<path class="st0" d="M28.3-21.5c0-0.5-0.1-1-0.3-1.4c-0.2-0.4-0.5-0.7-1-1c-3.6-2.1-7.2-4.2-10.8-6.2c-1-0.6-1.9-0.5-2.9,0
	c-1.4,0.8-8.6,5-10.8,6.2c-0.9,0.5-1.3,1.3-1.3,2.3c0,4.2,0,8.4,0,12.6c0,0.5,0.1,0.9,0.3,1.3c0.2,0.4,0.5,0.7,1,1
	c2.1,1.2,9.3,5.4,10.8,6.2c1,0.6,1.9,0.6,2.9,0c3.6-2.1,7.2-4.2,10.8-6.2c0.4-0.3,0.8-0.6,1-1C28.2-8,28.3-8.5,28.3-9
	C28.3-9,28.3-17.3,28.3-21.5"/>
<path class="st1" d="M14.8-15.3L1.5-7.6c0.2,0.4,0.5,0.7,1,1c2.1,1.2,9.3,5.4,10.8,6.2c1,0.6,1.9,0.6,2.9,0
	c3.6-2.1,7.2-4.2,10.8-6.2c0.4-0.3,0.8-0.6,1-1L14.8-15.3"/>
<path class="st1" d="M10.8-13c0.8,1.4,2.2,2.3,3.9,2.3c1.7,0,3.1-0.9,3.9-2.3l-3.9-2.2L10.8-13"/>
<path class="st2" d="M28.3-21.5c0-0.5-0.1-1-0.3-1.4l-13.2,7.6L28-7.6C28.2-8,28.3-8.5,28.3-9C28.3-9,28.3-17.3,28.3-21.5"/>
<path class="st3" d="M27.6-14.7h-1v1h-1v-1h-1v-1h1v-1h1v1h1V-14.7 M23.8-14.7h-1v1h-1v-1h-1v-1h1v-1h1v1h1V-14.7"/>
<path class="st3" d="M18.7-13.1c-0.8,1.4-2.2,2.3-3.9,2.3c-1.7,0-3.1-0.9-3.9-2.3c-0.4-0.7-0.6-1.4-0.6-2.2c0-2.5,2-4.5,4.5-4.5
	c1.7,0,3.1,0.9,3.9,2.2l3.9-2.3c-1.6-2.7-4.5-4.5-7.8-4.5c-5,0-9,4-9,9c0,1.6,0.4,3.2,1.2,4.5c1.6,2.7,4.5,4.5,7.8,4.5
	c3.4,0,6.3-1.8,7.8-4.5L18.7-13.1"/>
</svg>
