<?xml version="1.0" encoding="utf-8"?>
<!-- Generator: Adobe Illustrator 24.0.1, SVG Export Plug-In . SVG Version: 6.00 Build 0)  -->
<svg version="1.1" id="Layer_1" xmlns="http://www.w3.org/2000/svg" xmlns:xlink="http://www.w3.org/1999/xlink" x="0px" y="0px"
	 viewBox="0 0 2222 2500" style="enable-background:new 0 0 2222 2500;" xml:space="preserve">
<style type="text/css">
	.st0{fill:#A179DC;}
	.st1{fill:#280068;}
	.st2{fill:#390091;}
	.st3{fill:#FFFFFF;}
</style>
<path fill="#A179DC" d="M28.7-21.5c0-0.5-0.1-1-0.3-1.4c-0.2-0.4-0.5-0.7-1-1c-3.6-2.1-7.2-4.2-10.8-6.2c-1-0.6-1.9-0.5-2.9,0
	c-1.4,0.8-8.6,5-10.8,6.2c-0.9,0.5-1.3,1.3-1.3,2.3c0,4.2,0,8.4,0,12.6c0,0.5,0.1,0.9,0.3,1.3c0.2,0.4,0.5,0.7,1,1
	c2.1,1.2,9.3,5.4,10.8,6.2c1,0.6,1.9,0.6,2.9,0c3.6-2.1,7.2-4.2,10.8-6.2c0.4-0.3,0.8-0.6,1-1C28.6-8,28.7-8.5,28.7-9
	C28.7-9,28.7-17.3,28.7-21.5"/>
<path fill="#280068" d="M15.2-15.3L1.9-7.6c0.2,0.4,0.5,0.7,1,1c2.1,1.2,9.3,5.4,10.8,6.2c1,0.6,1.9,0.6,2.9,0
	c3.6-2.1,7.2-4.2,10.8-6.2c0.4-0.3,0.8-0.6,1-1L15.2-15.3z"/>
<path fill="#390091" d="M28.7-21.5c0-0.5-0.1-1-0.3-1.4l-13.2,7.6l13.2,7.7C28.6-8,28.7-8.5,28.7-9C28.7-9,28.7-17.3,28.7-21.5"/>
<g>
	<path fill="#FFFFFF" d="M23-18.2v1.4h1.4v-1.4h0.7v1.4h1.4v0.7h-1.4v1.4h1.4v0.7h-1.4v1.4h-0.7v-1.4H23v1.4h-0.7v-1.4h-1.4v-0.7h1.4
		V-16h-1.4v-0.7h1.4v-1.4L23-18.2z M24.5-16H23v1.4h1.4V-16z"/>
	<path fill="#FFFFFF" d="M15.2-25.3c3.7,0,7,2,8.7,5l0,0l-4.4,2.5c-0.9-1.5-2.5-2.5-4.3-2.5l-0.1,0c-2.8,0-5,2.2-5,5
		c0,0.9,0.2,1.7,0.7,2.5c0.9,1.5,2.5,2.5,4.4,2.5c1.9,0,3.5-1,4.4-2.6l0,0l4.4,2.5c-1.7,3-4.9,5-8.6,5l-0.1,0c-3.7,0-7-2-8.8-5.1
		c-0.9-1.5-1.3-3.2-1.3-5C5.1-20.8,9.7-25.3,15.2-25.3L15.2-25.3z"/>
</g>
</svg>
