<?xml version="1.0" encoding="utf-8"?>
<!-- Generator: Adobe Illustrator 24.0.1, SVG Export Plug-In . SVG Version: 6.00 Build 0)  -->
<svg version="1.1" id="Layer_1" xmlns="http://www.w3.org/2000/svg" xmlns:xlink="http://www.w3.org/1999/xlink" x="0px" y="0px"
	 viewBox="0 0 1823 2500" style="enable-background:new 0 0 1823 2500;" xml:space="preserve">
<style type="text/css">
	.st0{fill-rule:evenodd;clip-rule:evenodd;fill:#FFA712;}
	.st1{fill-rule:evenodd;clip-rule:evenodd;fill:#FFA50E;}
	.st2{fill:#F6820C;}
	.st3{fill:#FCCA3F;}
</style>
<g>
	<path id="a" class="st0" d="M4.8-5.8l0.1-0.3l8.5-16.3l-3.7-7.1c-0.3-0.6-1.1-0.4-1.2,0.2L4.8-5.8z"/>
</g>
<g>
	<path id="c" class="st1" d="M16.1-17l2.8-2.9l-2.8-5.4c-0.3-0.5-0.9-0.6-1.2-0.1l-1.6,3v0.2L16.1-17z"/>
</g>
<path class="st2" d="M4.8-5.8L4.8-5.8L5.2-6L16-16.9l0.1-0.4l-2.7-5.2L4.8-5.8z"/>
<path class="st3" d="M26.4-5.8l-2.8-17.3c-0.1-0.5-0.6-0.8-1-0.4L4.8-5.8l9.7,5.4c0.6,0.3,1.4,0.3,2,0L26.4-5.8L26.4-5.8z"/>
</svg>
