<?xml version="1.0" encoding="utf-8"?>
<!-- Generator: Adobe Illustrator 24.0.1, SVG Export Plug-In . SVG Version: 6.00 Build 0)  -->
<svg version="1.1" id="Layer_1" xmlns="http://www.w3.org/2000/svg" xmlns:xlink="http://www.w3.org/1999/xlink" x="0px" y="0px"
	 viewBox="0 0 1945 2500" style="enable-background:new 0 0 1945 2500;" xml:space="preserve">
<path d="M9.9-9.5C9-10.3,8-11,7.3-12.1c-1.5-1.8-2.5-3.9-3.4-6c-0.5-1.5-0.6-2.9-1.2-4.4c-0.6-1,0.1-2.1,1.2-2.4
	c0.5-0.1,1.3-0.6,0.4-0.2c-1,0.7-1-0.6-0.1-0.7C4.7-26,5-26.5,4.7-26.9c-0.7-0.5,1.7-1,0.5-1.6c-1.2-1.3,1.7-1.6,1-0.1
	c-0.1,1.2,2.1-0.2,1.6,1.1c0.6,1,2.1,0.5,1.9,1.3c0.7,0,1.1,0.7,1.8,0.7c0.7,0.4,2.1,0.6,2.4,1.5c-0.7,0.6-2.4-1.2-2.5,0.4
	c0.2,2.4,0.1,5,1.1,7.3c0.4,1.5,1.5,2.5,2.3,3.6s2.1,1.8,3.3,2.4c1.1,0.5,2.2,0.8,3.4,1.1c0.5-0.4,1.3-1.7,2.1-1.1
	c0,0.6-1.5,1.3-0.1,1.2c0.8-0.2,1.3,0.6,2.1-0.1c0.6,0.7,2.5-0.5,2.2,1C27-8,26.1-8.2,25.5-7.6c-1-0.5-1.8,0.5-2.8,0.4
	C21.5-7,20.3-7,19.1-6.9c-2.2-0.4-4.2-0.4-6.2-1.1C11.9-8.3,10.9-8.9,9.9-9.5L9.9-9.5z M11.6-8.8c1.1,0.5,2.1,1,3.3,1.1
	c1.8,0.2,3.7,0.6,5.6,0.2c-0.8-0.4-1.7,0.1-2.5-0.2c-1,0.2-2.1,0-3-0.2c-1.1-0.5-2.4-0.8-3.4-1.6c-1.5-0.4,0.6,0.7,0.8,0.8
	c0.8,0.5-1-0.2-1.2-0.5C10.4-9.5,10.3-9.5,11-9C11.2-8.9,11.5-8.8,11.6-8.8L11.6-8.8z M9.6-10.1c1,0.4,0-0.7-0.5-0.6
	c-0.2-0.4-0.8-0.6-0.4-0.7c-0.7,0.2-0.7-1-1.1-0.8c-0.7-0.2-0.4-1.1-1.2-1.7c-0.1-0.6-1-1.1-1.2-1.9c-0.1-0.5-1-1.7-0.5-0.5
	c0.5,1.1,1.2,2.1,1.8,3c0.5,1,1.1,1.8,1.9,2.4C9-10.7,9.2-10.3,9.6-10.1L9.6-10.1z M6.7-13.4C6.8-13.5,6.9-13,6.7-13.4z M10.9-9.8
	C11-9.8,10.5-9.9,10.9-9.8z M11.4-9.5C11.4-9.8,11.1-9.4,11.4-9.5z M12.1-9.3C12.3-9.5,11.6-9.4,12.1-9.3z M13.3-8.6
	C13.4-8.9,12.6-8.7,13.3-8.6z M11-10.1C11.5-10.5,10.3-10.1,11-10.1z M11.5-9.9C11.5-10,11.4-9.8,11.5-9.9z M14-8.3
	c0.4,0.2,2.4,0.6,1.2,0.1C15-8.1,12.9-8.8,14-8.3z M9.9-11.5C9.9-11.7,9.3-11.7,9.9-11.5z M11.1-10.7C11.5-11,10.5-11,11.1-10.7z
	 M12.2-10.1C12.7-10.4,11.5-10.4,12.2-10.1z M9.4-11.9c0.5,0.4,1.9,0,0.7-0.2c-0.5-0.4-1.7-0.5-0.8,0.1L9.4-11.9z M12.8-9.9
	C13.1-10.3,12-10.1,12.8-9.9z M11.9-10.7c1.2,0.4-1-0.7-0.2-0.1l0.1,0.1H11.9z M13.9-9.5C15-9.5,12.9-9.8,13.9-9.5z M9.1-12.7
	C9-12.9,8.8-12.7,9.1-12.7z M15.8-8.4C15.8-8.9,15.5-8.2,15.8-8.4z M11-11.5C10.9-11.7,10.6-11.5,11-11.5z M9.2-12.8
	C9.8-12.8,8.2-13,9.2-12.8z M7-14.1C6.9-14.5,6.3-14.7,7-14.1z M12.7-10.6C12.6-10.7,12.6-10.6,12.7-10.6z M16.2-8.4
	C16.2-8.7,16-8.3,16.2-8.4z M12.3-10.9C12.5-11.2,11.9-11,12.3-10.9z M9.7-12.6C10.2-12.7,9-12.9,9.7-12.6z M14.1-9.8
	C14.9-10.1,13.4-10,14.1-9.8z M11.9-11.3c0.8,0.1-1.1-0.6-0.2-0.1L11.9-11.3z M14.9-9.5c0.8-0.5,0.5,1.1,1.3,0.1
	c0.8-0.6-0.7,0.7,0.2,0.1C17.2-9.8,18.3-9,19-8.8c0.5,0,1,0.4,1.5,0.1c1-0.2-1.9-0.4-1.1-0.8c-0.8,0.2-1.6-0.4-1.9-0.8
	c-1-0.2-2.2-0.7-2.7-1.6c-0.2-0.4,0.2,0-0.1-0.5c-0.6-0.5-0.8-1.1-1.3-1.8c-0.5-0.2-0.5-1-0.6,0c0-0.6-0.6-1.1-0.7-0.8
	c0-0.6,0.6-0.2,0.2-0.7c-0.1-0.6-0.4-1.2-0.5-1.9c-0.1-0.4,0-1.1-0.5-0.2c-0.1,0.8,0-1,0.2-0.4c0.4-0.6-0.1-0.5-0.1-0.5
	c0.2-0.5,0.1-1.2,0-1c0.1-0.5,0.2-1.9-0.2-1.7c0.2-0.6,0.5-2.5-0.6-1.8c-0.4,0-1.1,0.1-1.5,0.4c1,0.4-0.1,0-0.6-0.1
	c0,0.5-0.5,0.2-1,0.4c0.8,0.1-0.4,0.8-0.8,0.6c-0.6,0.2,0.5,1.1,0,1.2c0.1,0.4-1-0.1-0.8,0.7c-0.6-0.2-0.1,1,0.2,0.5
	c1,0.2,0.7,0.8,0.7,1.5c-0.1,0.4-0.8-0.8-0.1-0.7c-0.6-1-0.6-0.4-1.1,0c-0.1,0,1.1,0.6,0.4,0.8C6.7-18,6.7-17.4,6.8-17
	c0.4,0.5,0.4-0.5,0.8,0c-0.4-0.5-1.7-1.3-0.6-1c0-0.5-0.2-0.8,0.1-0.8c0.4-0.6-0.4,1.5,0.4,0.7c0.2-0.1,0.2-0.6,0.6,0
	c0.5,0.5,0.2,0.8-0.6,0.4c0.1,0.5,1,0.6,0.8,1.3c0.1,0.6,0.4,0.4,0.6,0.4c0.1,0.6,0.2,0.1,0.2-0.1c0.7,0.1,0.6,0.6,0.8,1
	c0.5,0.2-0.7-1.6,0.1-0.6c1,0.8,0.4,1.2-0.5,1.1c0.5,0,0.7,0.7,1.3,0.7c0.6,0.2,1,1.5,0,1c-0.4-0.4-1.7-0.7-0.6-0.1
	c1,0.5,1.7,0.7,2.7,1.3c0.7,0.5,1,1,1.2,1.1c-0.6,0.2-1.7-0.2-0.8-0.4c-0.5-0.1-1.1-0.4-0.6,0.2c0.5,0.4,1.6,0.4,1.7,0.4
	c-0.1,0.4-0.5,0.4,0,0.4C14.1-9.8,14.9-9.7,14.9-9.5L14.9-9.5z M13.8-12.4c-0.4-0.4-0.4-1,0-0.4C13.9-12.8,14.3-11.8,13.8-12.4z
	 M17.2-10.4C17.4-10.4,17.2-10.1,17.2-10.4z M13.3-13.3C13.3-13.8,13.4-12.9,13.3-13.3z M12.9-13.8C12.6-14.5,13.5-13.5,12.9-13.8z
	 M9-16.5C9.2-16.5,9.1-16.2,9-16.5z M12.2-14.7C12.3-15.3,12.3-14.4,12.2-14.7z M9.9-16.4C9.7-16.7,10.2-16.1,9.9-16.4z M11.9-15.7
	c-0.4-0.8,0.2-0.5,0.1,0.1L11.9-15.7z M8.5-18c-0.1-0.2-0.5-1.1-0.4-1.3C8.2-19,9-17.6,8.5-18.7c-0.5-1,0.6,0.4,0.7,0.6
	c0,0.2-0.4-0.1-0.1,0.5C8.7-18.4,8.8-17.4,8.5-18z M7.4-18.7C7.5-19.3,7.6-18.2,7.4-18.7z M7.9-18.6C8.1-19.1,8.2-17.9,7.9-18.6z
	 M6.8-19.4c-0.4-0.4-0.7-0.7,0-0.2c0.2,0-0.6-0.8,0.1-0.2C7.5-19.8,7.1-18.8,6.8-19.4L6.8-19.4z M7.4-19.4
	C7.6-19.7,7.5-19.2,7.4-19.4z M7.7-19.3C7.4-19.9,8.1-19.1,7.7-19.3z M7-20c-1.1-1,1.5,0.5,0.2,0.2L7-20z M10.3-18.1
	c-0.6-0.4-0.2-2.1,0-0.8c0.5-0.1,0,0.6,0.4,0.6C10.5-17.9,10.4-17.8,10.3-18.1z M11.4-17.4C11.5-18,11.5-17,11.4-17.4z M11.2-17.6
	C11.2-17.9,11.2-17.4,11.2-17.6z M7.1-20.4c-0.7-1,2.2,1.1,0.5,0.2C7.5-20.2,7.3-20.2,7.1-20.4z M9.6-19.1C9.4-19.9,9.7-19,9.6-19.1
	z M11.2-18C11.4-18.5,11.2-17.6,11.2-18z M7.3-20.8c0.5-0.1,1.8,0.7,0.6,0.2C7.7-20.7,7.4-20.5,7.3-20.8L7.3-20.8z M11-18.8
	c0-0.8,0.2-0.5,0,0.1V-18.8L11-18.8z M7.6-21c0.1-0.2-0.5-1.2,0.1-0.4C8-21.1,8.5-21,8-21C8.7-20.4,7.9-20.8,7.6-21z M10.9-19.2
	C11-20.2,11-18.6,10.9-19.2z M7.3-22C7.4-22,7.4-21.7,7.3-22z M8.1-21.5C8.3-21.9,8.5-21,8.1-21.5z M10.5-20.2
	C10.4-20.3,10.5-19.9,10.5-20.2z M10.3-20.4C10-21.3,10.6-20,10.3-20.4z M10.2-21C10-21.3,10.3-20.5,10.2-21z M10.4-21.5
	c-0.2-0.4,0.2-1.7,0.4-1c-0.2,0.7,0,1.1,0.1,0.2C11.2-22.9,10.8-20.9,10.4-21.5L10.4-21.5z M10.8-23.6
	C10.9-23.7,10.8-23.4,10.8-23.6z M10.3-12.4C10-12.6,10.3-12.3,10.3-12.4z M11.4-11.8c0.6,0.1,0.6-0.1,0-0.1c-0.4-0.2-1.3-0.6-0.4,0
	C11.1-11.9,11.2-11.9,11.4-11.8z M9.1-13.4c0.4,0.2,1.3,0.7,0.5,0.1c0.2-0.4-0.5-0.5-0.2-0.7c-0.7-0.4-0.6-0.4-0.1-0.4
	c-0.8-0.4,0.1-0.4,0.1-0.5c-0.4-0.1-1.6-0.6-0.8,0c-0.7-0.4-0.1,0.1-0.4,0.1C7.4-15,8.8-14.1,8-14.4C8.5-14,9.2-13.5,8.2-14
	C8-13.8,8.8-13.5,9.1-13.4L9.1-13.4z M10.3-12.7C11.7-12.2,9.6-13.3,10.3-12.7z M16.6-8.9C16.6-9.2,16.3-8.7,16.6-8.9z M17.2-8.7
	c0.4-0.4,0,0.5,0.6-0.1c0-0.5,0-0.7-0.6-0.1C16.9-8.8,16.8-8.4,17.2-8.7L17.2-8.7z M7-15C6.9-15.5,6.3-15.5,7-15z M7.7-14.6
	C7.5-15,6.8-15,7.7-14.6z M11.6-12.2c0.4,0.4,1.7,0.2,0.5,0C11.9-12.4,10.9-12.4,11.6-12.2z M16.9-8.9C17.5-9.4,16.3-8.7,16.9-8.9z
	 M18.1-8.1C18.1-8.2,17.9-8.1,18.1-8.1z M18.1-8.3C18.7-9,17.5-8.3,18.1-8.3z M5.3-16.4c-0.6-0.7-0.4-1.1-0.8-1.8
	c-0.1-0.5-1-1.6-0.4-0.5C4.5-17.9,4.6-16.9,5.3-16.4L5.3-16.4z M17.9-8.6C19.1-9.3,17.4-8.9,17.9-8.6z M18.9-8.2
	C19.5-8.7,18.5-8.3,18.9-8.2z M6.8-15.8C7-16.2,6.4-15.9,6.8-15.8z M18.6-8.4C19.2-8.8,18.5-8.7,18.6-8.4L18.6-8.4z M10.9-13.4
	C10.8-13.6,10.5-13.3,10.9-13.4z M11.4-13C11.1-13.4,11.1-13,11.4-13z M19.6-8.2c0.7-0.5-0.5-0.1-0.1,0.1L19.6-8.2z M19.2-8.3
	C19.8-8.8,18.6-8.1,19.2-8.3z M20.7-7.4C21.2-7.6,20.2-7.5,20.7-7.4z M7.1-16.1c0.5,0.1,2.2,1.3,1.2,0.1c-0.5-0.1-0.2-1.3-0.7-1.1
	C8-16.5,8-16.3,7.3-16.7c-0.8-0.5-0.5,0.2-0.4,0.4C6.8-16.2,7.3-16.1,7.1-16.1L7.1-16.1z M4.7-18c0.1-0.4-0.8-2.2-0.5-1
	C4.5-18.6,4.4-18.1,4.7-18z M9.2-15.2C9-15.5,9.2-15.2,9.2-15.2z M9.9-15.1C9.9-15.5,9.2-15.2,9.9-15.1z M15.8-11.3
	C15.7-11.6,15.5-11.3,15.8-11.3z M16.2-11.1C16.1-11.2,16-11.1,16.2-11.1z M18.5-9.7C18.7-9.8,18.3-9.7,18.5-9.7z M5.9-17.6
	C6.7-18,5.3-17.9,5.9-17.6z M15.4-11.8C15.4-12.2,15-11.7,15.4-11.8z M5.7-18.2C6.2-18.5,5.3-18.4,5.7-18.2z M6.9-17.8
	C6.9-17.9,6.8-17.6,6.9-17.8z M21.6-8.7c0.5-0.1,1.8,0.2,1.9-0.1c-0.6,0-2.3-0.5-2.3,0.1h0.1H21.6L21.6-8.7z M7.3-17.6
	C7.3-18,7-17.6,7.3-17.6z M4.1-19.8C4-20.7,3.6-19.9,4.1-19.8z M4.8-19.6C4.8-19.9,4.2-19.8,4.8-19.6z M5.3-19.4
	C5.2-19.4,5.2-19.3,5.3-19.4z M8-17.6C8.1-17.8,7.7-17.8,8-17.6z M5.1-19.9C5-20.5,4.1-19.9,5.1-19.9z M3.5-20.9
	C3.4-21.1,3.3-20.8,3.5-20.9z M3.8-21C3.6-21.4,3.5-21,3.8-21z M5-20.3C5.6-20.5,4-20.8,5-20.3L5-20.3z M22-9.8
	C22.4-10,21.6-9.9,22-9.8z M24.1-8.7C24.3-9,23.8-8.7,24.1-8.7z M5.1-21C5.2-21.4,4.7-20.9,5.1-21z M3.3-22.2
	c-0.1-0.6-0.1-1.6,0.8-1.2c-1.2,0.2,0.8,1.6,0.6,0.5c0.5,0,1-0.4,0.7,0.2c1.1-0.1,1.7-1,2.8-0.8c0.7-0.1,1.6-0.1,2.4-0.5
	c0.7,0,1.3-0.8,1-1.2c-1-0.1-1.9,0-2.9,0.2c-1.1,0.2-2.2,0.7-3.4,0.8c-1.1,0.1,0.2,0.4-0.1,0.5c-0.6,0.2,0.7,0.4-0.1,0.6
	c-0.5-0.1-1-0.2-0.7-0.7C3.3-23.7,2.4-23.3,3.3-22.2L3.3-22.2L3.3-22.2z M5.9-23.6c0.2-1,1.3,0.7,0.4,0.1
	C6.2-23.4,6.1-23.6,5.9-23.6z M5.9-23.9C6.3-24.3,6.2-23.8,5.9-23.9z M6.4-23.9c0-0.5,1.1,0.2,0.1,0.1L6.4-23.9L6.4-23.9z M7-24.2
	C7.3-24.5,7.1-23.9,7-24.2z M7.3-24.3c0.4-0.5,2.2-0.2,0.8,0C7.7-24.6,7.5-24.2,7.3-24.3L7.3-24.3z M9.6-24.6
	C9.6-26,10.8-24.3,9.6-24.6z M10.3-24.6c0.2-0.6,1-0.2,0.1-0.1C10.4-24.8,10.3-24.5,10.3-24.6z M4.8-21.3
	C5.6-21.7,4.1-21.6,4.8-21.3z M5.4-21.1C5.7-21.4,4.8-21.3,5.4-21.1z M3.8-22.2C4.2-22.6,3.3-22.3,3.8-22.2z M25.3-8.8
	C25.4-9.2,25-8.7,25.3-8.8z M23.1-10.3C23.2-10.7,22.9-10.3,23.1-10.3z M25.9-8.7c0.6,0,1.8-0.2,0.5-0.1C26.2-8.8,25.3-8.8,25.9-8.7
	z M5.8-21.4c0.5,0,0.7-0.5-0.1-0.5c-1.3-0.1,1.1,0.5-0.1,0.2C5.4-21.5,5.8-21.4,5.8-21.4z M6.3-21.1C6.2-21.5,6.2-21,6.3-21.1z
	 M6.8-22.5C7-22.7,6.5-22.6,6.8-22.5z M5.2-25.1c0.8-0.2,1.9-0.6,2.4,0.1c-0.4-0.5-0.1-1,0.2-0.2c0.5,0.7,0.8-0.4,0.5-0.6
	c0.4,0.5,0.8,0.7,0.2,0c0.6-0.7-1.3,0.1-1.7,0.1C6.7-25.6,4.6-25.2,5.2-25.1L5.2-25.1z M5.7-26.1c0.5-0.4,1.7,0.2,0.8-0.4
	C6.5-26.5,5-26,5.7-26.1z M7.5-26c0.6,0-0.2-0.7,0.5-0.4c-0.1-0.4-0.7-0.5-1.1-0.6C6.5-26.7,7.1-26,7.5-26z M6.1-27.5
	C6.2-27.9,5.7-27.4,6.1-27.5z M6.7-27.4c0.8-0.1-0.2-0.4-0.2,0H6.7L6.7-27.4z M5.3-28.5c-0.6-0.8,1.2,0.1,0.6-0.7
	C5.3-29.6,4.8-28.8,5.3-28.5L5.3-28.5z M13.5-24c0.2-0.5-1.2-0.7-0.2-0.2C13.4-24.2,13.4-24,13.5-24L13.5-24z M7.6-4.8
	C7.5-4.6,7.5-4.1,7.5-3.5c0,0.1,0,0.1-0.1,0.1s-0.1,0-0.2-0.1C7-3.7,6.9-4,6.8-4.1C6.7-4.2,6.5-4.2,6.3-4.3c-0.2,0-0.7,0-1.6,0
	c-0.2,0-0.4,0-0.4,0.1v0.1v2.5c0,0.1,0,0.1,0.1,0.1c0.4,0,0.8,0,1.5-0.1c0.1,0,0.2,0,0.2-0.1s0.1-0.2,0.1-0.5c0-0.1,0.1-0.2,0.2-0.1
	c0.1,0,0.2,0.1,0.1,0.1C6.5-1.7,6.5-0.9,6.5-0.1C6.5,0,6.5,0,6.3,0C6.2,0,6.2,0,6.1-0.1c0-0.5-0.1-0.7-0.4-0.7s-0.7,0-1.3,0
	c-0.1-0.1-0.1,0-0.1,0v2.5c0,0.2,0.1,0.4,0.2,0.4s0.4,0.1,0.7,0.1c0.2,0,0.2,0.1,0.2,0.2S5.2,2.6,5,2.6c-0.8-0.1-1.7-0.1-2.2,0
	C2.5,2.7,2.4,2.7,2.4,2.4c0-0.1,0.1-0.1,0.2-0.1c0.4,0,0.6-0.4,0.6-1v-4.8c0-0.2,0-0.5-0.1-0.6C3-4.2,2.8-4.3,2.5-4.5
	C2.4-4.6,2.4-4.7,2.4-4.8s0-0.1,0.1-0.1c0,0,0.1,0,0.4,0s0.8,0,1.7,0c1.1,0,1.9,0,2.8-0.1C7.5-4.9,7.6-4.9,7.6-4.8L7.6-4.8L7.6-4.8z
	 M11.4,2.4c0,0.1-0.1,0.2-0.2,0.2c-0.5,0-1.2,0-1.9,0c-0.1,0-0.2,0-0.2,0s0-0.1,0-0.2s0.1-0.1,0.4-0.2C9.6,2.1,9.7,2,9.7,1.6v-5.2
	c0-0.4,0-0.5-0.1-0.7c-0.4,0-0.5-0.1-0.7-0.1c-0.1,0-0.1-0.1-0.1-0.1c0-0.1,0.1-0.2,0.2-0.2c0.1-0.2,0.5-0.4,0.7-0.5
	c0.2-0.1,0.4-0.2,0.5-0.2c0.1,0,0.2,0.1,0.2,0.2c0,0,0,0.1,0,0.6c0,0.4,0,0.7,0,1.1v5.1c0,0.2,0,0.4,0.1,0.5
	c0.1,0.1,0.4,0.1,0.6,0.2C11.2,2.3,11.4,2.3,11.4,2.4L11.4,2.4z M16.4,2.2c0,0.1-0.1,0.2-0.5,0.4c-0.2,0.1-0.5,0.2-0.6,0.2
	c-0.1,0-0.2-0.1-0.4-0.2s-0.2-0.2-0.2-0.2s-0.2,0.1-0.5,0.2c-0.4,0.1-0.7,0.2-1.1,0.2s-0.6-0.1-0.7-0.2c-0.2-0.2-0.4-0.5-0.4-0.8
	c0-0.6,0.7-1.1,2.3-1.5c0.2,0,0.4-0.1,0.4-0.4v-0.4c0-0.6-0.2-1-0.8-1c-0.1,0-0.4,0.1-0.5,0.5c-0.1,0.4-0.4,0.5-0.6,0.5
	c-0.4,0-0.5-0.1-0.5-0.4s0.2-0.4,0.7-0.6c0.5-0.2,1-0.4,1.5-0.4c0.7,0,1.2,0.4,1.1,1.1v2.3C15.6,1.8,15.7,2,16,2c0,0,0.1,0,0.2,0
	s0.2,0,0.2,0C16.4,2,16.4,2,16.4,2.2L16.4,2.2z M14.8,0.9c0-0.1,0-0.1-0.1-0.2c0,0-0.1,0-0.2,0c-0.8,0.1-1.3,0.5-1.3,0.8
	c0,0.5,0.2,0.6,0.7,0.6c0.2,0,0.4,0,0.6-0.1c0.2-0.1,0.4-0.2,0.4-0.4L14.8,0.9L14.8,0.9z M20.8,1.5c0,0.4-0.1,0.7-0.5,1
	C20,2.7,19.6,2.8,19,2.8c-0.4,0-0.7,0-1.1-0.1c-0.4-0.1-0.5-0.1-0.5-0.2c0,0,0-0.4,0-0.7c0-0.2,0-0.4,0.1-0.4s0.1,0,0.2,0.1
	C18,2,18.5,2.2,19.1,2.2C19.6,2.2,20,2,20,1.6c0-0.1-0.1-0.2-0.2-0.4S19.3,1,19,0.7c-0.6-0.2-1-0.5-1.1-0.6
	c-0.2-0.2-0.4-0.5-0.4-0.8s0.1-0.7,0.5-1C18.3-1.9,18.7-2,19.2-2c0.4,0,0.6,0,0.8,0.1c0.2,0,0.4,0.1,0.5,0.2c0,0.2,0.1,0.5,0.2,1
	c0,0,0,0.1-0.1,0.1s-0.2,0-0.2-0.1c-0.2-0.5-0.7-0.7-1.1-0.7c-0.5,0-0.7,0.1-0.7,0.5c0,0.2,0.1,0.4,0.2,0.5C19-0.3,19.2-0.2,19.7,0
	s0.8,0.4,1,0.6C20.7,0.9,20.8,1.1,20.8,1.5L20.8,1.5z M27.4,2.4c0,0.1-0.1,0.2-0.2,0.2c-0.2,0-0.6,0-1.1,0c-0.2,0-0.4,0-0.5-0.1
	C25,2,24.5,1.2,24.1,0.5c0-0.1-0.1-0.1-0.1-0.1c-0.1,0-0.1,0-0.4,0.1c-0.1,0.1-0.2,0.2-0.2,0.4s0,0.4,0,0.6s0.1,0.4,0.2,0.5
	c0.1,0,0.2,0.1,0.6,0.1c0.1,0,0.2,0.1,0.2,0.2s0,0.1,0,0.1s-0.1,0-0.2,0c-0.4,0-1,0-1.9,0c-0.2,0-0.4,0-0.4-0.1V2.2
	C21.9,2.1,22,2,22.2,2c0.2,0,0.4-0.2,0.4-0.7v-5c0-0.4,0-0.5-0.1-0.6S22.2-4.6,22-4.7c-0.2,0.1-0.2,0.1-0.2,0s0.1-0.2,0.2-0.2
	c0.2-0.1,0.6-0.2,0.8-0.4c0.2-0.1,0.4-0.2,0.4-0.2c0.1,0,0.2,0.1,0.2,0.2c0,0,0,0.1,0,0.6c0,0.4,0,0.7,0,1.1V0c0,0.1,0,0.1,0.1,0.1
	c0,0,0.1,0,0.2-0.1c0.4-0.2,0.7-0.6,1.2-1c0.1-0.1,0.1-0.1,0.1-0.2c0-0.1-0.1-0.1-0.5-0.2c-0.1,0-0.2-0.1-0.2-0.2
	c0-0.1,0.1-0.2,0.2-0.1c0.2,0,0.7,0,1.2,0.1c0.4,0,0.7,0,1.1,0c0.1,0,0.1,0.1,0.1,0.2S27-1.2,26.8-1.2c-0.2,0-0.6,0.1-0.8,0.2
	c-0.4,0.1-0.7,0.5-1.2,0.8c0,0,0,0,0,0.1c0,0,0.1,0.1,0.2,0.4c0.5,0.7,1,1.3,1.3,1.7c0.2,0.2,0.5,0.4,0.7,0.4
	C27.2,2.4,27.3,2.4,27.4,2.4C27.4,2.3,27.4,2.3,27.4,2.4L27.4,2.4z"/>
</svg>
