<?xml version="1.0" encoding="utf-8"?>
<!-- Generator: Adobe Illustrator 24.0.1, SVG Export Plug-In . SVG Version: 6.00 Build 0)  -->
<svg version="1.1" id="Layer_1" xmlns="http://www.w3.org/2000/svg" xmlns:xlink="http://www.w3.org/1999/xlink" x="0px" y="0px"
	 viewBox="0 0 2500 2500" style="enable-background:new 0 0 2500 2500;" xml:space="preserve">
<style type="text/css">
	.st0{fill:#DE4C36;}
</style>
<path class="st0" d="M30.9-16.7L16.7-30.9c-0.8-0.8-2.1-0.8-3,0l-3,3l3.8,3.8c0.9-0.3,1.9-0.1,2.6,0.6c0.7,0.7,0.9,1.7,0.6,2.6
	l3.6,3.6c0.9-0.3,1.9-0.1,2.6,0.6c1,1,1,2.6,0,3.5c-1,1-2.6,1-3.5,0c-0.7-0.7-0.9-1.8-0.5-2.7l-3.4-3.4l0,8.9
	c0.2,0.1,0.5,0.3,0.7,0.5c1,1,1,2.6,0,3.5c-1,1-2.6,1-3.5,0c-1-1-1-2.6,0-3.5c0.2-0.2,0.5-0.4,0.8-0.5v-9c-0.3-0.1-0.6-0.3-0.8-0.5
	c-0.7-0.7-0.9-1.8-0.5-2.7l-3.7-3.7l-9.8,9.8c-0.8,0.8-0.8,2.2,0,3L13.8,0.5c0.8,0.8,2.1,0.8,3,0l14.2-14.2
	C31.7-14.5,31.7-15.9,30.9-16.7"/>
</svg>
