<?xml version="1.0" encoding="utf-8"?>
<!-- Generator: Adobe Illustrator 24.0.1, SVG Export Plug-In . SVG Version: 6.00 Build 0)  -->
<svg version="1.1" id="Layer_1" xmlns="http://www.w3.org/2000/svg" xmlns:xlink="http://www.w3.org/1999/xlink" x="0px" y="0px"
	 viewBox="0 0 1024 1024" style="enable-background:new 0 0 1024 1024;" xml:space="preserve">
<style type="text/css">
	.st0{fill-rule:evenodd;clip-rule:evenodd;fill:#1B1F23;}
</style>
<path fill-rule="evenodd" clip-rule="evenodd" fill="#1B1F23" d="M17.4-40.3C6-40.3-3.3-31.1-3.3-19.7c0,9.1,5.9,16.9,14.1,19.6c1,0.2,1.4-0.4,1.4-1c0-0.5,0-2.1,0-3.8
	c-5.2,1-6.5-1.3-7-2.4c-0.2-0.6-1.2-2.4-2.1-2.9c-0.7-0.4-1.8-1.3,0-1.4c1.6,0,2.8,1.5,3.2,2.1c1.9,3.1,4.8,2.2,6,1.7
	c0.2-1.3,0.7-2.2,1.3-2.8C9.1-11,4.3-12.8,4.3-20.7c0-2.2,0.8-4.1,2.1-5.6c-0.2-0.5-0.9-2.6,0.2-5.5c0,0,1.7-0.5,5.7,2.1
	c1.7-0.5,3.4-0.7,5.2-0.7s3.5,0.2,5.2,0.7c4-2.7,5.7-2.1,5.7-2.1c1.1,2.8,0.4,5,0.2,5.5c1.3,1.4,2.1,3.3,2.1,5.6
	c0,7.9-4.8,9.7-9.4,10.2c0.7,0.6,1.4,1.9,1.4,3.8c0,2.8,0,5,0,5.7c0,0.5,0.4,1.2,1.4,1c8.2-2.7,14.1-10.5,14.1-19.6
	C38.1-31.1,28.8-40.3,17.4-40.3z"/>
</svg>
