<?xml version="1.0" encoding="utf-8"?>
<!-- Generator: Adobe Illustrator 24.0.1, SVG Export Plug-In . SVG Version: 6.00 Build 0)  -->
<svg version="1.1" id="Layer_1" xmlns="http://www.w3.org/2000/svg" xmlns:xlink="http://www.w3.org/1999/xlink" x="0px" y="0px"
	 viewBox="0 0 2500 2500" style="enable-background:new 0 0 2500 2500;" xml:space="preserve">
<style type="text/css">
	.st0{fill-rule:evenodd;clip-rule:evenodd;fill:#3174B9;}
	.st1{fill-rule:evenodd;clip-rule:evenodd;fill:#CA3132;}
</style>
<g>
	<path fill="#3174B9" d="M12.5-12.9c0,0-0.8,0.5,0.6,0.6c1.8,0.2,2.6,0.1,4.6-0.2c0,0,0.5,0.4,1.2,0.6C14.6-10,9.2-12,12.5-12.9z
		 M12.1-15.3c0,0-1,0.7,0.5,0.8c1.9,0.2,3.4,0.2,5.9-0.2c0,0,0.4,0.4,1,0.6C14.1-12.7,8.2-14.1,12.1-15.3z"/>
	<path fill="#CA3132" d="M16.5-19.5c1.1,1.2-0.2,2.3-0.2,2.3s2.8-1.4,1.4-3.1c-1.2-1.7-2-2.4,2.8-5.3C20.5-25.6,12.9-23.6,16.5-19.5z"
		/>
	<path fill="#3174B9" d="M22.3-11.1c0,0,0.6,0.5-0.7,1c-2.5,0.7-10.5,1-12.6,0c-0.8-0.4,0.7-0.8,1.2-1c0.5-0.1,0.7-0.1,0.7-0.1
		C10-11.8,5.2-10,8.5-9.4C17.2-8,24.6-10,22.3-11.1L22.3-11.1z M12.9-17.9c0,0-4.1,1-1.4,1.3c1.1,0.1,3.2,0.1,5.3,0
		c1.7-0.1,3.4-0.5,3.4-0.5s-0.6,0.2-1,0.6c-4.1,1.1-12,0.6-9.7-0.5C11.3-18,12.9-17.9,12.9-17.9L12.9-17.9z M20.2-13.9
		c4.2-2.2,2.3-4.2,0.8-4c-0.4,0.1-0.5,0.1-0.5,0.1S20.7-18,21-18C23.6-18.9,25.7-15.2,20.2-13.9C20.1-13.8,20.2-13.8,20.2-13.9z"/>
	<path fill="#CA3132" d="M17.7-30.1c0,0,2.3,2.3-2.2,5.9c-3.6,2.9-0.8,4.5,0,6.4c-2.2-1.9-3.6-3.6-2.6-5.2
		C14.5-25.3,18.7-26.4,17.7-30.1L17.7-30.1z"/>
	<path fill="#3174B9" d="M13.4-8c4,0.2,10.1-0.1,10.3-2c0,0-0.2,0.7-3.2,1.3c-3.4,0.6-7.6,0.6-10.1,0.1C10.3-8.6,10.7-8.1,13.4-8z"/>
	<path fill="#CA3132" d="M12.7-0.8c-0.4,0.4-0.7,0.5-1.1,0.5c-0.5,0-0.8-0.4-0.8-0.8s0.2-1,1.4-1h0.5V-0.8L12.7-0.8z M13.7,0.4v-3.6
		c0-1-0.5-1.6-1.8-1.6c-0.7,0-1.4,0.2-1.9,0.4l0.1,0.7c0.4-0.1,1-0.2,1.4-0.2c0.7,0,1.1,0.2,1.1,1v0.5h-0.4c-1.8,0-2.6,0.7-2.6,1.7
		c0,0.8,0.5,1.4,1.6,1.4c0.6,0,1.1-0.2,1.6-0.6l0.1,0.4H13.7z M17.2,0.4h-1.3l-1.6-5.1h1.1l1,3.1l0.2,1c0.5-1.3,0.8-2.8,1-4.1h1.1
		C18.6-2.9,18-1.1,17.2,0.4z M22.2-0.8c-0.4,0.4-0.7,0.5-1.1,0.5c-0.5,0-0.8-0.4-0.8-0.8s0.2-1,1.4-1h0.5V-0.8z M23.2,0.4v-3.6
		c0-1-0.5-1.6-1.8-1.6c-0.7,0-1.4,0.2-1.9,0.4l0.1,0.6C20-3.9,20.6-4,21.1-4c0.7,0,1.1,0.2,1.1,1v0.5h-0.4c-1.8,0-2.6,0.7-2.6,1.7
		c0,0.8,0.5,1.4,1.6,1.4c0.6,0,1.1-0.2,1.6-0.6l0.1,0.5H23.2z M8.6,1.3c-0.2,0.5-0.7,0.8-1.3,1L6.8,1.6c0.5-0.1,0.7-0.5,1-0.8
		C7.9,0.5,8,0.2,8-0.7v-5.8h1.1v5.7C9.1,0.4,8.9,0.9,8.6,1.3z"/>
</g>
</svg>
