<?xml version="1.0" encoding="utf-8"?>
<!-- Generator: Adobe Illustrator 24.0.1, SVG Export Plug-In . SVG Version: 6.00 Build 0)  -->
<svg version="1.1" id="Layer_1" xmlns="http://www.w3.org/2000/svg" xmlns:xlink="http://www.w3.org/1999/xlink" x="0px" y="0px"
	 viewBox="0 0 2500 2500" style="enable-background:new 0 0 2500 2500;" xml:space="preserve">
<style type="text/css">
	.st0{fill-rule:evenodd;clip-rule:evenodd;fill:#3174B9;}
	.st1{fill-rule:evenodd;clip-rule:evenodd;fill:#CA3132;}
</style>
<g>
	<path class="st0" d="M13-13.1c0,0-0.7,0.4,0.5,0.5c1.5,0.2,2.2,0.1,3.8-0.2c0,0,0.4,0.3,1,0.5C14.7-10.7,10.2-12.3,13-13.1z
		 M12.6-15.1c0,0-0.8,0.6,0.4,0.7c1.6,0.2,2.8,0.2,4.9-0.2c0,0,0.3,0.3,0.8,0.5C14.3-12.9,9.4-14.1,12.6-15.1z"/>
	<path class="st1" d="M16.3-18.6c0.9,1-0.2,1.9-0.2,1.9s2.3-1.2,1.2-2.6c-1-1.4-1.7-2,2.3-4.4C19.6-23.6,13.3-22,16.3-18.6z"/>
	<path class="st0" d="M21.1-11.6c0,0,0.5,0.4-0.6,0.8c-2.1,0.6-8.7,0.8-10.5,0c-0.7-0.3,0.6-0.7,1-0.8c0.4-0.1,0.6-0.1,0.6-0.1
		c-0.7-0.5-4.7,1-2,1.5C16.9-9,23-10.7,21.1-11.6L21.1-11.6z M13.3-17.2c0,0-3.4,0.8-1.2,1.1c0.9,0.1,2.7,0.1,4.4,0
		c1.4-0.1,2.8-0.4,2.8-0.4s-0.5,0.2-0.8,0.5c-3.4,0.9-10,0.5-8.1-0.4C12-17.3,13.3-17.2,13.3-17.2L13.3-17.2z M19.4-13.9
		c3.5-1.8,1.9-3.5,0.7-3.3c-0.3,0.1-0.4,0.1-0.4,0.1s0.1-0.2,0.3-0.2C22.2-18.1,23.9-15,19.4-13.9C19.3-13.8,19.4-13.8,19.4-13.9z"
		/>
	<path class="st1" d="M17.3-27.4c0,0,1.9,1.9-1.8,4.9c-3,2.4-0.7,3.7,0,5.3c-1.8-1.6-3-3-2.2-4.3C14.6-23.4,18.1-24.3,17.3-27.4
		L17.3-27.4z"/>
	<path class="st0" d="M13.7-9c3.3,0.2,8.4-0.1,8.6-1.7c0,0-0.2,0.6-2.7,1.1c-2.8,0.5-6.3,0.5-8.4,0.1C11.1-9.5,11.5-9.1,13.7-9z"/>
	<path class="st1" d="M13.1-3c-0.3,0.3-0.6,0.4-0.9,0.4c-0.4,0-0.7-0.3-0.7-0.7c0-0.4,0.2-0.8,1.2-0.8h0.4L13.1-3L13.1-3z M14-2v-3
		c0-0.8-0.4-1.3-1.5-1.3c-0.6,0-1.2,0.2-1.6,0.3L11-5.4c0.3-0.1,0.8-0.2,1.2-0.2c0.6,0,0.9,0.2,0.9,0.8v0.4h-0.3
		c-1.5,0-2.2,0.6-2.2,1.4c0,0.7,0.4,1.2,1.3,1.2c0.5,0,0.9-0.2,1.3-0.5L13.3-2H14z M16.9-2h-1.1l-1.3-4.2h0.9l0.8,2.6l0.2,0.8
		c0.4-1.1,0.7-2.3,0.8-3.4h0.9C18-4.8,17.5-3.3,16.9-2z M21-3c-0.3,0.3-0.6,0.4-0.9,0.4c-0.4,0-0.7-0.3-0.7-0.7
		c0-0.4,0.2-0.8,1.2-0.8H21V-3z M21.9-2v-3c0-0.8-0.4-1.3-1.5-1.3c-0.6,0-1.2,0.2-1.6,0.3l0.1,0.5c0.3-0.1,0.8-0.2,1.2-0.2
		c0.6,0,0.9,0.2,0.9,0.8v0.4h-0.3c-1.5,0-2.2,0.6-2.2,1.4c0,0.7,0.4,1.2,1.3,1.2c0.5,0,0.9-0.2,1.3-0.5L21.2-2H21.9z M9.7-1.3
		C9.5-0.9,9.1-0.6,8.6-0.5L8.2-1C8.6-1.1,8.8-1.4,9-1.7c0.1-0.2,0.2-0.5,0.2-1.2v-4.8h0.9V-3C10.1-2,10-1.6,9.7-1.3z"/>
</g>
</svg>
