<?xml version="1.0" encoding="utf-8"?>
<!-- Generator: Adobe Illustrator 24.0.1, SVG Export Plug-In . SVG Version: 6.00 Build 0)  -->
<svg version="1.1" baseProfile="tiny" id="Layer_1" xmlns="http://www.w3.org/2000/svg" xmlns:xlink="http://www.w3.org/1999/xlink"
	 x="0px" y="0px" viewBox="0 0 4.2 4.2" xml:space="preserve">
<title>javascript</title>
<path fill="#F0DB4F" d="M0-31.2h31.2V0H0V-31.2z"/>
<path fill="#323330" d="M28.6-7.4c-0.2-1.4-1.2-2.6-3.9-3.7c-1-0.4-2-0.8-2.3-1.5c-0.1-0.3-0.1-0.6-0.1-0.9c0.3-0.8,1.2-1.2,1.9-0.9
	c0,0,0,0,0,0c0.6,0.2,1,0.6,1.3,1.2c1.3-0.9,1.3-0.9,2.3-1.5c-0.2-0.4-0.5-0.7-0.8-1c-0.9-1-2.3-1.5-3.7-1.3l-0.9,0.1
	c-0.9,0.2-1.6,0.6-2.2,1.3c-1.4,1.8-1.1,4.3,0.6,5.7c0,0,0.1,0.1,0.1,0.1c1.8,1.3,4.4,1.6,4.7,2.9c0.3,1.5-1.1,2-2.5,1.8
	c-1-0.2-1.8-0.8-2.3-1.7c-1.2,0.7-1.2,0.7-2.4,1.4c0.3,0.5,0.6,1,1.1,1.4c2.3,2.3,7.9,2.2,8.9-1.3C28.7-6,28.8-6.7,28.6-7.4z
	 M16.9-16.8H14c0,2.5,0,5,0,7.5c0.1,1.2,0.1,2.4-0.2,3.5c-0.4,0.7-1.3,0.9-2,0.6c-0.5-0.2-0.8-0.6-1.1-1.1c0-0.1-0.1-0.2-0.2-0.3
	C9.8-6.1,9-5.6,8.2-5.1c0.4,0.8,1,1.5,1.7,2c1.3,0.7,2.8,0.9,4.2,0.5c1-0.3,1.9-0.9,2.4-1.8c0.5-1.4,0.7-2.9,0.5-4.3
	C17-11.5,16.9-14.2,16.9-16.8L16.9-16.8z"/>
</svg>
