<?xml version="1.0" encoding="utf-8"?>
<!-- Generator: Adobe Illustrator 24.0.1, SVG Export Plug-In . SVG Version: 6.00 Build 0)  -->
<svg version="1.1" id="Layer_1" xmlns="http://www.w3.org/2000/svg" xmlns:xlink="http://www.w3.org/1999/xlink" x="0px" y="0px"
	 viewBox="0 0 72 72" style="enable-background:new 0 0 72 72;" xml:space="preserve">
<g>
	<path fill-rule="evenodd" clip-rule="evenodd" fill="#007EBB" class="st0" d="M4.3,0h30.2c2.4,0,4.3-1.9,4.3-4.3v-30.2c0-2.4-1.9-4.3-4.3-4.3H4.3c-2.4,0-4.3,1.9-4.3,4.3v30.2
		C0-1.9,1.9,0,4.3,0z"/>
	<path fill-rule="evenodd" clip-rule="evenodd" fill="#FFFFFF" d="M33.4-5.4h-5.8v-9.8c0-2.7-1-4.2-3.1-4.2c-2.3,0-3.5,1.6-3.5,4.2v9.8h-5.5v-18.7H21v2.5c0,0,1.7-3.1,5.6-3.1
		c4,0,6.8,2.4,6.8,7.4V-5.4z M8.8-26.5c-1.9,0-3.4-1.5-3.4-3.4c0-1.9,1.5-3.4,3.4-3.4s3.4,1.5,3.4,3.4C12.2-28.1,10.7-26.5,8.8-26.5
		z M5.9-5.4h5.8v-18.7H5.9V-5.4z"/>
</g>
</svg>
