<?xml version="1.0" encoding="utf-8"?>
<!-- Generator: Adobe Illustrator 24.0.1, SVG Export Plug-In . SVG Version: 6.00 Build 0)  -->
<svg version="1.1" id="Livello_1" xmlns="http://www.w3.org/2000/svg" xmlns:xlink="http://www.w3.org/1999/xlink" x="0px"
  y="0px" viewBox="0 0 1831.1 1703.3" style="enable-background:new 0 0 1831.1 1703.3;" xml:space="preserve">
  <!-- <style type="text/css">
    .st2 {
      ;
    }

    .st3 {
      ;
    }

    .st4 {
      fill: #14447D;
    }

    .st5 {
      fill: url(#SVGID_1_);
    }

    .st6 {
      fill: #1490DF;
    }

    .st7 {
      fill: url(#SVGID_2_);
    }

    .st8 {
      fill: #FFFFFF;
    }

    .st9 {
      fill: #50D9FF;
    }
  </style> -->
  <path fill="#0A2767" d="M36-15.9c0-0.3-0.1-0.5-0.4-0.7h0l0,0L23.1-24c-0.1,0-0.1-0.1-0.2-0.1c-0.5-0.2-1.1-0.2-1.5,0
	c-0.1,0-0.1,0.1-0.2,0.1L8.8-16.6l0,0c-0.4,0.2-0.5,0.7-0.3,1.1c0.1,0.1,0.2,0.2,0.3,0.3l12.5,7.4c0.1,0,0.1,0.1,0.2,0.1
	c0.5,0.2,1.1,0.2,1.5,0c0.1,0,0.1-0.1,0.2-0.1l12.5-7.4C35.8-15.3,36-15.6,36-15.9z" />
  <path fill="#0364B8" d="M34.3-28.5v-3.4c0-0.9-0.7-1.6-1.5-1.6H11.6c-0.9,0-1.5,0.7-1.5,1.6v3.4l12.6,3.3L34.3-28.5z" />
  <path fill="#0078D4" d="M10-28.5h8.4v7.5H10V-28.5z" />
  <path fill="#28A8EA" d="M26.8-28.5h-8.4v7.5l8.4,7.5h7.5v-7.5L26.8-28.5z" />
  <path fill="#0078D4" d="M18.4-20.9h8.4v7.5h-8.4V-20.9z" />
  <path fill="#0A2767" d="M18.4-13.4h8.4v7.5h-8.4V-13.4z" />
  <path fill="#14447D" d="M10.2-13.3h8.2v6.8h-8.2V-13.3z" />
  <path fill="#0078D4" d="M26.8-13.4h7.5v7.5h-7.5V-13.4z" />
  <linearGradient id="SVGID_1_" gradientUnits="userSpaceOnUse" x1="22.1793" y1="714.7644" x2="22.1793" y2="730.6666"
    gradientTransform="matrix(1 0 0 1 0 -730.6666)">
    <stop offset="0" style="stop-color:#35B8F1" />
    <stop offset="1" style="stop-color:#28A8EA" />
  </linearGradient>
  <path fill="#28A8EA" d="M35.6-15.2L35.6-15.2l-12.5,7c-0.1,0-0.1,0.1-0.2,0.1C22.7-8,22.5-8,22.3-8l-0.7-0.4c-0.1,0-0.1-0.1-0.2-0.1
	L8.8-15.7h0l-0.4-0.2v14.2C8.4-0.8,9.1,0,10.1,0h24.2c0,0,0,0,0,0c0.2,0,0.4-0.1,0.6-0.1c0.1,0,0.2-0.1,0.2-0.1
	c0.1,0,0.2-0.1,0.2-0.1C35.7-0.7,36-1.2,36-1.7v-14.2C36-15.6,35.8-15.4,35.6-15.2z" />
  <path fill="#1490DF" d="M35.6-15.2L35.6-15.2l-12.5,7c-0.1,0-0.1,0.1-0.2,0.1c-0.5,0.2-1.1,0.2-1.5,0c-0.1,0-0.1-0.1-0.2-0.1l-12.5-7
	l0,0c-0.2-0.1-0.4-0.4-0.4-0.7v14.2C8.4-0.8,9.1,0,10.1,0c0,0,0,0,0,0h24.2C35.2,0,36-0.8,36-1.7c0,0,0,0,0,0v-14.2
	C36-15.6,35.8-15.4,35.6-15.2z" />
  <path fill="#0078D4" d="M10.1,0h24.1c0.4,0,0.7-0.1,1-0.3l-13.7-8c-0.1,0-0.1-0.1-0.2-0.1L8.8-15.7h0l-0.4-0.2v14.1
	C8.4-0.8,9.2,0,10.1,0C10.1,0,10.1,0,10.1,0z" />
  <linearGradient id="SVGID_2_" gradientUnits="userSpaceOnUse" x1="3.1987" y1="703.5222" x2="15.2143" y2="724.3327"
    gradientTransform="matrix(1 0 0 1 0 -730.6666)">
    <stop offset="0" style="stop-color:#1784D9" />
    <stop offset="0.5" style="stop-color:#107AD5" />
    <stop offset="1" style="stop-color:#0A63C9" />
  </linearGradient>
  <path fill="#107AD5" d="M1.5-25.9h15.3c0.8,0,1.5,0.7,1.5,1.5v15.3c0,0.8-0.7,1.5-1.5,1.5H1.5C0.7-7.5,0-8.2,0-9.1v-15.3
	C0-25.3,0.7-25.9,1.5-25.9z" />
  <path fill="#FFFFFF"
    d="M4.8-19.5c0.4-0.8,1-1.5,1.8-1.9c0.8-0.5,1.8-0.7,2.8-0.7c0.9,0,1.8,0.2,2.6,0.7c0.7,0.4,1.3,1.1,1.7,1.8
	c0.4,0.8,0.6,1.8,0.6,2.7c0,1-0.2,2-0.6,2.8c-0.4,0.8-1,1.5-1.8,1.9c-0.8,0.5-1.7,0.7-2.7,0.7c-0.9,0-1.8-0.2-2.6-0.7
	c-0.7-0.4-1.3-1.1-1.7-1.9c-0.4-0.8-0.6-1.8-0.6-2.7C4.2-17.7,4.4-18.6,4.8-19.5z M6.7-15c0.2,0.5,0.5,1,1,1.3
	c0.5,0.3,1,0.5,1.5,0.5c0.6,0,1.2-0.1,1.6-0.5c0.4-0.3,0.8-0.8,1-1.3c0.2-0.6,0.3-1.2,0.3-1.8c0-0.6-0.1-1.2-0.3-1.8
	c-0.2-0.5-0.5-1-0.9-1.3c-0.5-0.3-1-0.5-1.6-0.5c-0.6,0-1.1,0.1-1.6,0.5c-0.4,0.3-0.8,0.8-1,1.3C6.2-17.5,6.2-16.1,6.7-15L6.7-15z" />
  <path fill="#50D9FF" d="M26.8-28.5h7.5v7.5h-7.5V-28.5z" />
</svg>