<?xml version="1.0" encoding="utf-8"?>
<!-- Generator: Adobe Illustrator 24.0.1, SVG Export Plug-In . SVG Version: 6.00 Build 0)  -->
<svg version="1.1" id="Layer_1" xmlns="http://www.w3.org/2000/svg" xmlns:xlink="http://www.w3.org/1999/xlink" x="0px" y="0px"
	 viewBox="0 0 1024 1024" style="enable-background:new 0 0 1024 1024;" xml:space="preserve">
<path d="M14.3-29.4c-0.1,0-0.3,0-0.4,0C9.7-29,5.8-26.7,3.3-23.3c-1.4,1.9-2.3,4.1-2.6,6.4c-0.1,0.8-0.1,1-0.1,2.1s0,1.3,0.1,2.1
	C1.5-7,5.4-2.4,10.7-0.7c1,0.3,2,0.5,3.1,0.6c0.4,0,2.4,0,2.8,0c2-0.2,3.6-0.7,5.3-1.6c0.3-0.1,0.3-0.2,0.3-0.2c0,0-1.1-1.5-2.4-3.2
	l-2.4-3.2l-2.9-4.4c-1.6-2.4-3-4.4-3-4.4c0,0,0,1.9,0,4.3c0,4.1,0,4.3-0.1,4.4C11.4-8,11.3-8,11.2-7.9c-0.1,0-0.2,0.1-0.6,0.1h-0.5
	L10-7.9C9.9-8,9.8-8.1,9.8-8.2L9.7-8.3l0-5.8l0-5.8l0.1-0.1c0-0.1,0.1-0.1,0.2-0.2c0.1-0.1,0.2-0.1,0.7-0.1c0.6,0,0.7,0,0.8,0.2
	c0,0,1.6,2.5,3.5,5.3s4.5,6.9,5.8,8.8l2.3,3.5l0.1-0.1c1-0.7,2.1-1.6,3-2.7c1.9-2.1,3.1-4.7,3.5-7.5c0.1-0.8,0.1-1,0.1-2.1
	s0-1.3-0.1-2.1C29-22.4,25.1-27,19.8-28.7c-0.9-0.3-1.9-0.5-3.1-0.6C16.4-29.4,14.5-29.4,14.3-29.4L14.3-29.4z M20.3-20.5
	c0.1,0.1,0.3,0.2,0.3,0.3c0,0.1,0,1.7,0,5.3l0,5.2l-0.9-1.4l-0.9-1.4v-3.8c0-2.4,0-3.8,0-3.9c0-0.2,0.1-0.3,0.3-0.4
	c0.1-0.1,0.2-0.1,0.6-0.1C20.1-20.6,20.2-20.6,20.3-20.5L20.3-20.5z"/>
</svg>
