<?xml version="1.0" encoding="utf-8"?>
<!-- Generator: Adobe Illustrator 24.0.1, SVG Export Plug-In . SVG Version: 6.00 Build 0)  -->
<svg version="1.1" id="Layer_1" xmlns="http://www.w3.org/2000/svg" xmlns:xlink="http://www.w3.org/1999/xlink" x="0px" y="0px"
	 viewBox="0 0 2500 1309" style="enable-background:new 0 0 2500 1309;" xml:space="preserve">
<style type="text/css">
	.st0{fill-rule:evenodd;clip-rule:evenodd;fill:#8993BE;}
	.st1{fill-rule:evenodd;clip-rule:evenodd;fill:#232531;}
</style>
<g>
	<ellipse fill="#8993BE" cx="15.1" cy="-15.8" rx="13" ry="6.8"/>
	<path fill="#232531" d="M5.8-11.7L7.2-19h3.3c1.4,0.1,2.1,0.8,2.1,2.1c0,2.1-1.7,3.4-3.2,3.3H7.8l-0.4,1.9H5.8z M8.2-15l0.4-2.7h1.2
		c0.6,0,1.1,0.3,1.1,0.8C10.8-15.3,10-15,9.2-15L8.2-15L8.2-15z M12.3-13.6l1.4-7.2h1.7L15.1-19h1.6c1.4,0.1,2,0.8,1.8,1.7l-0.6,3.7
		H16l0.6-3.3c0.1-0.4,0.1-0.7-0.5-0.7h-1.3l-0.8,4H12.3z M17.7-11.7l1.4-7.2h3.3c1.4,0.1,2.1,0.8,2.1,2.1c0,2.1-1.7,3.4-3.2,3.3
		h-1.6l-0.4,1.9H17.7z M20.1-15l0.4-2.7h1.2c0.6,0,1.1,0.3,1.1,0.8C22.7-15.3,22-15,21.2-15H20.1L20.1-15z"/>
</g>
</svg>
