<?xml version="1.0" encoding="utf-8"?>
<!-- Generator: Adobe Illustrator 24.0.1, SVG Export Plug-In . SVG Version: 6.00 Build 0)  -->
<svg version="1.1" id="Layer_1" xmlns="http://www.w3.org/2000/svg" xmlns:xlink="http://www.w3.org/1999/xlink" x="0px" y="0px"
	 viewBox="0 0 2500 2490" style="enable-background:new 0 0 2500 2490;" xml:space="preserve">
<style type="text/css">
	.st0{fill:#376A95;}
	.st1{fill:#FFC332;}
</style>
<path fill="#376A95" d="M15.2-30.5c-7.8,0-7.3,3.4-7.3,3.4l0,3.5h7.4v1H5c0,0-5-0.6-5,7.3c0,7.8,4.3,7.6,4.3,7.6h2.6v-3.6
	c0,0-0.1-4.3,4.3-4.3h7.4c0,0,4.1,0.1,4.1-4v-6.7C22.7-26.4,23.3-30.5,15.2-30.5z M11.1-28.1c0.7,0,1.3,0.6,1.3,1.3c0,0,0,0,0,0
	c0,0.7-0.6,1.3-1.3,1.3c0,0,0,0,0,0c-0.7,0-1.3-0.6-1.3-1.3c0,0,0,0,0,0C9.8-27.5,10.4-28.1,11.1-28.1
	C11.1-28.1,11.1-28.1,11.1-28.1z"/>
<path fill="#FFC332" d="M15.4,0c7.8,0,7.3-3.4,7.3-3.4l0-3.5h-7.4v-1h10.4c0,0,5,0.6,5-7.3c0-7.8-4.3-7.6-4.3-7.6h-2.6v3.6
	c0,0,0.1,4.3-4.3,4.3h-7.4c0,0-4.1-0.1-4.1,4v6.7C7.9-4.1,7.3,0,15.4,0L15.4,0z M19.5-2.3c-0.7,0-1.3-0.6-1.3-1.3c0,0,0,0,0,0
	c0-0.7,0.6-1.3,1.3-1.3c0,0,0,0,0,0c0.7,0,1.3,0.6,1.3,1.3c0,0,0,0,0,0C20.9-2.9,20.3-2.3,19.5-2.3C19.5-2.3,19.5-2.3,19.5-2.3
	L19.5-2.3z"/>
</svg>
