<?xml version="1.0" encoding="utf-8"?>
<!-- Generator: Adobe Illustrator 24.0.1, SVG Export Plug-In . SVG Version: 6.00 Build 0)  -->
<svg version="1.1" id="Layer_1" xmlns="http://www.w3.org/2000/svg" xmlns:xlink="http://www.w3.org/1999/xlink" x="0px" y="0px"
	 viewBox="0 0 1125 199" style="enable-background:new 0 0 1125 199;" xml:space="preserve">
<style type="text/css">
	.st0{fill:#F5D318;}
	.st1{fill:#1A202D;}
	.st2{fill:#F7F8F8;}
	.st3{fill:#F7F7F7;}
</style>
<path fill="#F5D318" d="M36.7-29.2c0.1,0.7,0.4,1.3,0.4,1.9c0,5.1,0,10.2,0,15.2c0,1.6-0.7,2.6-2,3.3c-4.6,2.5-9.3,5-13.9,7.5
	c-1.6,0.9-3,0.9-4.6,0c-4.7-2.6-9.4-5.1-14-7.6c-1.2-0.6-1.9-1.5-1.9-2.9c0-5.3,0-10.6,0-15.9c0-1.3,0.7-2.2,1.8-2.9
	c4.7-2.6,9.4-5.1,14.1-7.7c1.5-0.9,3-0.9,4.5,0c4.7,2.6,9.4,5.1,14.1,7.7C35.8-30.3,36.2-29.7,36.7-29.2"/>
<path fill="#1A202D" d="M36.1-28.9c0.1,0.6,0.3,1.2,0.3,1.8c0,4.9,0,9.8,0,14.7c0,1.5-0.6,2.5-2,3.2C30-6.8,25.5-4.4,21.1-1.9
	c-1.5,0.8-2.9,0.9-4.5,0c-4.5-2.5-9-4.9-13.6-7.4c-1.1-0.6-1.8-1.5-1.8-2.8c0-5.1,0-10.3,0-15.4c0-1.3,0.7-2.2,1.8-2.8
	c4.6-2.5,9.1-4.9,13.6-7.4c1.5-0.8,2.9-0.8,4.4,0c4.5,2.5,9.1,4.9,13.6,7.4C35.2-29.9,35.6-29.4,36.1-28.9 M28-24
	c-1.3-3.6-5-6.5-7.8-6.2c0.1,0.1,0.2,0.1,0.2,0.2c3.8,3,5.5,6.8,4.4,11.7c-0.2,0.8-0.5,0.7-1,0.4c-1.5-0.7-3-1.5-4.5-2.1
	c-0.8-0.3-1.7-0.5-2.6-0.7c0,0.1-0.1,0.2-0.1,0.3c1,0.8,2,1.6,3,2.4c1,0.8,2,1.7,3.1,2.7c-2.4,1.2-4.7,1.6-7.1,1
	c-2.4-0.6-4.2-2.1-5.9-3.9c0.5,2.9,2.1,5,4.6,6.4c3.8,2.1,7.4,1.6,10.8-0.9c0.6,0.4,1,1,1.5,1.1c1.5,0.1,3,0,4.5,0
	c0.1-0.1,0.1-0.2,0.2-0.3c-1.2-1.3-2.5-2.5-3.8-3.8C28.7-18.3,29.1-21,28-24 M7.7-24c0.4,1,1.1,1.2,2.2,1.1
	c3.7-0.4,7.4-0.1,10.9,1.6c0.3,0.1,0.7,0.1,1,0.2c0-0.1,0.1-0.3,0.1-0.4c-4.5-4.2-10.1-5.3-16.2-5.8C6.4-26.1,7.1-25.1,7.7-24z"/>
<path fill="#F7F8F8" d="M28-23.9c1,2.9,0.7,5.6-0.6,8.2c1.3,1.3,2.5,2.6,3.8,3.8c-0.1,0.1-0.1,0.2-0.2,0.3c-1.5,0-3,0.1-4.5,0
	c-0.5,0-1-0.7-1.5-1.1c-3.4,2.4-7,2.9-10.8,0.9c-2.5-1.4-4.1-3.5-4.6-6.4c1.7,1.8,3.5,3.3,5.9,3.9c2.4,0.6,4.7,0.2,7.1-1
	c-1.1-1-2.1-1.8-3.1-2.7c-1-0.8-2-1.6-3-2.4c0-0.1,0.1-0.2,0.1-0.3c0.9,0.2,1.7,0.4,2.6,0.7c1.5,0.6,3,1.4,4.5,2.1
	c0.5,0.3,0.8,0.3,1-0.4c1.2-4.9-0.5-8.7-4.4-11.7c-0.1,0-0.1-0.1-0.2-0.2C23.1-30.5,26.7-27.6,28-23.9z"/>
<path fill="#F7F8F8" d="M7.7-24.1c-0.6-1.1-1.3-2-2-3.3c6.2,0.4,11.7,1.6,16.2,5.8c0,0.1-0.1,0.3-0.1,0.4c-0.3-0.1-0.7,0-1-0.2
	c-3.4-1.7-7.1-2-10.9-1.6C8.8-22.8,8.2-23,7.7-24.1z"/>
<path fill="#1A202D" d="M-3.1-18.3"/>
</svg>
