<?xml version="1.0" encoding="utf-8"?>
<!-- Generator: Adobe Illustrator 24.0.1, SVG Export Plug-In . SVG Version: 6.00 Build 0)  -->
<svg version="1.1" id="Layer_1" xmlns="http://www.w3.org/2000/svg" xmlns:xlink="http://www.w3.org/1999/xlink" x="0px" y="0px"
	 viewBox="0 0 2194 2500" style="enable-background:new 0 0 2194 2500;" xml:space="preserve">
<style type="text/css">
	.st0{fill:#61DAFB;}
</style>
<path class="st0" d="M30.7-15.5c0-2.1-2.6-4.1-6.7-5.3c0.9-4.1,0.5-7.4-1.3-8.4c-0.4-0.2-0.9-0.4-1.4-0.4v1.4c0.3,0,0.5,0.1,0.7,0.2
	c0.9,0.5,1.3,2.4,1,4.9c-0.1,0.6-0.2,1.2-0.3,1.9c-1.3-0.3-2.6-0.5-4.1-0.7c-0.9-1.2-1.8-2.3-2.7-3.2c2.1-2,4.1-3,5.4-3v-1.4
	c-1.8,0-4.1,1.3-6.5,3.5c-2.4-2.2-4.7-3.4-6.5-3.4v1.4c1.3,0,3.3,1.1,5.4,3c-0.9,0.9-1.8,2-2.7,3.2c-1.5,0.2-2.8,0.4-4.1,0.7
	c-0.1-0.6-0.3-1.3-0.3-1.9c-0.3-2.5,0.1-4.4,0.9-4.9c0.2-0.1,0.4-0.2,0.7-0.2v-1.4c-0.5,0-1,0.1-1.5,0.4c-1.8,1-2.2,4.3-1.3,8.4
	c-4,1.2-6.6,3.2-6.6,5.3c0,2.1,2.6,4.1,6.7,5.3C4.7-6.1,5.1-2.8,6.9-1.8c0.4,0.2,0.9,0.4,1.5,0.4c1.8,0,4.1-1.3,6.5-3.5
	c2.4,2.2,4.7,3.4,6.5,3.4c0.5,0,1-0.1,1.5-0.4c1.8-1,2.2-4.3,1.3-8.4C28.1-11.5,30.7-13.4,30.7-15.5L30.7-15.5z M22.3-19.8
	c-0.2,0.8-0.5,1.7-0.9,2.6c-0.3-0.5-0.5-1-0.8-1.5c-0.3-0.5-0.6-1-0.9-1.5C20.5-20.2,21.4-20.1,22.3-19.8L22.3-19.8z M19.3-13
	c-0.5,0.9-1,1.7-1.6,2.5c-1,0.1-1.9,0.1-2.9,0.1c-1,0-2,0-2.9-0.1c-0.5-0.8-1.1-1.6-1.6-2.5c-0.5-0.8-0.9-1.7-1.3-2.6
	c0.4-0.9,0.9-1.7,1.3-2.6c0.5-0.9,1-1.7,1.6-2.5c1-0.1,1.9-0.1,2.9-0.1c1,0,2,0,2.9,0.1c0.5,0.8,1.1,1.6,1.6,2.5
	c0.5,0.8,0.9,1.7,1.3,2.6C20.2-14.7,19.8-13.8,19.3-13L19.3-13z M21.4-13.8c0.3,0.9,0.6,1.7,0.9,2.6c-0.8,0.2-1.7,0.4-2.7,0.5
	c0.3-0.5,0.6-1,0.9-1.5C20.8-12.8,21.1-13.3,21.4-13.8L21.4-13.8z M14.8-6.9C14.2-7.5,13.6-8.2,13-9c0.6,0,1.2,0,1.8,0
	c0.6,0,1.2,0,1.8,0C16-8.2,15.4-7.5,14.8-6.9z M10-10.7c-0.9-0.1-1.8-0.3-2.6-0.5c0.2-0.8,0.5-1.7,0.9-2.6c0.3,0.5,0.5,1,0.8,1.5
	C9.4-11.7,9.7-11.2,10-10.7z M14.8-24.2c0.6,0.6,1.2,1.3,1.8,2.1c-0.6,0-1.2,0-1.8,0c-0.6,0-1.2,0-1.8,0
	C13.6-22.8,14.2-23.5,14.8-24.2z M10-20.4c-0.3,0.5-0.6,1-0.9,1.5c-0.3,0.5-0.6,1-0.8,1.5c-0.3-0.9-0.6-1.7-0.9-2.6
	C8.2-20,9.1-20.2,10-20.4L10-20.4z M4.2-12.3c-2.3-1-3.8-2.3-3.8-3.3s1.5-2.3,3.8-3.3C4.7-19,5.3-19.3,6-19.5
	c0.4,1.3,0.9,2.6,1.5,3.9c-0.6,1.3-1.1,2.7-1.4,3.9C5.4-11.8,4.7-12,4.2-12.3L4.2-12.3z M7.7-3c-0.9-0.5-1.3-2.4-1-4.9
	C6.8-8.5,6.9-9.2,7-9.8c1.3,0.3,2.6,0.5,4.1,0.7c0.9,1.2,1.8,2.3,2.7,3.2c-2.1,2-4.1,3-5.4,3C8.1-2.9,7.9-2.9,7.7-3L7.7-3z M23-8
	c0.3,2.5-0.1,4.4-0.9,4.9c-0.2,0.1-0.4,0.2-0.7,0.2c-1.3,0-3.3-1.1-5.4-3c0.9-0.9,1.8-2,2.7-3.2c1.5-0.2,2.8-0.4,4.1-0.7
	C22.8-9.2,22.9-8.6,23-8z M25.5-12.3c-0.6,0.2-1.2,0.5-1.8,0.7c-0.4-1.3-0.9-2.6-1.5-3.9c0.6-1.3,1.1-2.7,1.4-3.9
	c0.6,0.2,1.2,0.4,1.8,0.7c2.3,1,3.8,2.3,3.8,3.3C29.2-14.5,27.7-13.2,25.5-12.3L25.5-12.3z"/>
<circle class="st0" cx="14.8" cy="-15.5" r="3"/>
</svg>
