<svg id="Layer_1" data-name="Layer 1" xmlns="http://www.w3.org/2000/svg" xmlns:xlink="http://www.w3.org/1999/xlink" width="47" height="46.9" viewBox="0 0 47 46.9">
  <defs>
    <clipPath id="clip-path" transform="translate(0 47)">
      <rect y="-33.3" width="47" height="33.3" style="fill: none"/>
    </clipPath>
    <clipPath id="clip-path-2" transform="translate(0 47)">
      <rect y="-33.3" width="17" height="12.2" style="fill: none"/>
    </clipPath>
    <clipPath id="clip-path-3" transform="translate(0 47)">
      <rect y="-47" width="47" height="15.4" style="fill: none"/>
    </clipPath>
    <clipPath id="clip-path-5" transform="translate(0 47)">
      <rect y="-22.8" width="47" height="1.9" style="fill: none"/>
    </clipPath>
    <clipPath id="clip-path-6" transform="translate(0 47)">
      <rect y="-11.4" width="47" height="1.7" style="fill: none"/>
    </clipPath>
    <clipPath id="clip-path-7" transform="translate(0 47)">
      <rect x="29.9" y="-33.3" width="1.9" height="33.3" style="fill: none"/>
    </clipPath>
    <clipPath id="clip-path-8" transform="translate(0 47)">
      <rect x="15.3" y="-33.3" width="1.9" height="33.3" style="fill: none"/>
    </clipPath>
  </defs>
  <title>table</title>
  <path d="M1.6-31.6H45.4v30H1.6Z" transform="translate(0 47)" style="fill: #2e3d50"/>
  <g style="clip-path: url(#clip-path)">
    <path d="M.8-33.3H.4a.09794.09794,0,0,0-.1.1l-.1.1L.1-33l-.1.1V-.5a.09794.09794,0,0,0,.1.1l.1.1.1.1.1.1H46.6a.09794.09794,0,0,0,.1-.1l.1-.1.1-.1L47-.5V-32.9a.09793.09793,0,0,0-.1-.1h-.1l-.1-.1-.1-.1H.8Z" transform="translate(0 47)" style="fill: #2e3d50"/>
  </g>
  <path d="M.8-32.4H46.2V-.8H.8Z" transform="translate(0 47)" style="fill: #e2f0fa"/>
  <path d="M30.8-.8v-9.7H46.2V-.8Z" transform="translate(0 47)" style="fill: #9ccc65"/>
  <path d="M.8-21.9H16.2V-32.4H.8Z" transform="translate(0 47)" style="fill: #e2f0fa"/>
  <path d="M1.6-31.7H15.5v9H1.6Z" transform="translate(0 47)" style="fill: #e2f0fa"/>
  <g style="clip-path: url(#clip-path-2)">
    <path d="M.8-33.2H.6a.09794.09794,0,0,0-.1.1L.4-33l-.1.1-.1.1v10.9a.09794.09794,0,0,0,.1.1l.1.1.1.1.1.1H16.4a.09794.09794,0,0,0,.1-.1l.1-.1.1-.1.1-.1V-32.8a.09794.09794,0,0,0-.1-.1l-.1-.1-.1-.1-.1-.1H.8Z" transform="translate(0 47)" style="fill: #e2f0fa"/>
  </g>
  <path d="M.8-.8H16.2V-32.4H.8Z" transform="translate(0 47)" style="fill: #fec872"/>
  <g style="clip-path: url(#clip-path-3)">
    <path d="M.8-47H.4a.09794.09794,0,0,0-.1.1.09794.09794,0,0,1-.1.1l-.1.1-.1.1V-32a.09794.09794,0,0,0,.1.1l.1.1.1.1.1.1H46.6a.09794.09794,0,0,0,.1-.1l.1-.1.1-.1L47-32V-46.6c0-.1,0-.1-.1-.1l-.1-.1-.1-.1a.34914.34914,0,0,0-.2-.1H.8Z" transform="translate(0 47)" style="fill: #2e3d50"/>
  </g>
  <g style="clip-path: url(#clip-path)">
    <path d="M.8-33.3H.4a.09794.09794,0,0,0-.1.1l-.1.1L.1-33l-.1.1V-.5a.09794.09794,0,0,0,.1.1l.1.1.1.1.1.1H46.6a.09794.09794,0,0,0,.1-.1l.1-.1.1-.1L47-.5V-32.9a.09793.09793,0,0,0-.1-.1l-.1-.1-.1-.1-.1-.1H.8Zm.8,1.7H45.4v30H1.6Z" transform="translate(0 47)" style="fill: #2e3d50"/>
  </g>
  <g style="clip-path: url(#clip-path-5)">
    <path d="M.8-22.7H.4a.09794.09794,0,0,0-.1.1l-.1.1-.1.1-.1.1v.8a.09794.09794,0,0,0,.1.1l.1.1.1.1.1.1H46.6a.09794.09794,0,0,0,.1-.1l.1-.1.1-.1.1-.1v-.8a.09794.09794,0,0,0-.1-.1.09794.09794,0,0,1-.1-.1l-.1-.1-.1-.1H.8Z" transform="translate(0 47)" style="fill: #2e3d50"/>
  </g>
  <g style="clip-path: url(#clip-path-6)">
    <path d="M.8-11.4H.4a.09794.09794,0,0,0-.1.1l-.1.1-.1.1L0-11v.8a.09794.09794,0,0,0,.1.1.09794.09794,0,0,1,.1.1l.1.1.1.1H46.6a.09794.09794,0,0,0,.1-.1l.1-.1.1-.1.1-.1V-11a.09794.09794,0,0,0-.1-.1l-.1-.1-.1-.1-.1-.1H.8Z" transform="translate(0 47)" style="fill: #2e3d50"/>
  </g>
  <g style="clip-path: url(#clip-path-7)">
    <path d="M30.8-33.3h-.4a.09794.09794,0,0,0-.1.1l-.1.1-.1.1-.1.1V-.5a.09794.09794,0,0,0,.1.1l.1.1.1.1.1.1h.8a.09794.09794,0,0,0,.1-.1l.1-.1.1-.1.1-.1V-32.9a.09793.09793,0,0,0-.1-.1h-.1l-.1-.1-.1-.1H31C30.9-33.2,30.9-33.3,30.8-33.3Z" transform="translate(0 47)" style="fill: #2e3d50"/>
  </g>
  <g style="clip-path: url(#clip-path-8)">
    <path d="M16.2-33.3h-.4a.09794.09794,0,0,0-.1.1l-.1.1-.1.1-.1.1V-.5a.09794.09794,0,0,0,.1.1l.1.1.1.1.1.1h.8a.09794.09794,0,0,0,.1-.1l.1-.1.1-.1L17-.5V-32.9a.09793.09793,0,0,0-.1-.1l-.1-.1-.1-.1-.1-.1h-.2C16.3-33.2,16.3-33.3,16.2-33.3Z" transform="translate(0 47)" style="fill: #2e3d50"/>
  </g>
  <path d="M1.6-45.4H45.4v12.2H1.6Z" transform="translate(0 47)" style="fill: #4895ef"/>
</svg>
