<?xml version="1.0" encoding="utf-8"?>
<!-- Generator: Adobe Illustrator 24.0.1, SVG Export Plug-In . SVG Version: 6.00 Build 0)  -->
<svg version="1.1" id="Layer_1" xmlns="http://www.w3.org/2000/svg" xmlns:xlink="http://www.w3.org/1999/xlink" x="0px" y="0px"
	 viewBox="0 0 2500 1499" style="enable-background:new 0 0 2500 1499;" xml:space="preserve">
<style type="text/css">
	.st0{fill:#06B6D4;}
</style>
<path fill="#06B6D4" d="M15-23.8c-4.1,0-6.7,2.1-7.6,6.2c1.5-2.1,3.3-2.8,5.4-2.3c1.1,0.2,2,1.1,3,2.1c1.5,1.5,3.2,3.3,7,3.3
	c4.1,0,6.7-2.1,7.6-6.2c-1.5,2.1-3.3,2.8-5.4,2.3c-1.1-0.2-2-1.1-3-2.1C20.5-22.1,18.8-23.8,15-23.8L15-23.8z M7.4-14.6
	c-4.1,0-6.7,2.1-7.6,6.2c1.5-2.1,3.3-2.8,5.4-2.3c1.1,0.2,2,1.1,3,2.1c1.5,1.5,3.2,3.3,7,3.3c4.1,0,6.7-2.1,7.6-6.2
	c-1.5,2.1-3.3,2.8-5.4,2.3c-1.1-0.2-2-1.1-3-2.1C12.9-12.9,11-14.6,7.4-14.6L7.4-14.6z"/>
</svg>
