<?xml version="1.0" encoding="utf-8"?>
<!-- Generator: Adobe Illustrator 24.0.1, SVG Export Plug-In . SVG Version: 6.00 Build 0)  -->
<svg version="1.1" id="Layer_1" xmlns="http://www.w3.org/2000/svg" xmlns:xlink="http://www.w3.org/1999/xlink" x="0px" y="0px"
	 viewBox="0 0 2500 1499" style="enable-background:new 0 0 2500 1499;" xml:space="preserve">
<style type="text/css">
	.st0{fill:#06B6D4;}
</style>
<path class="st0" d="M15-22.1c-3.3,0-5.4,1.7-6.2,5c1.2-1.7,2.7-2.3,4.4-1.9c0.9,0.2,1.6,0.9,2.4,1.7c1.2,1.2,2.6,2.7,5.7,2.7
	c3.3,0,5.4-1.7,6.2-5c-1.2,1.7-2.7,2.3-4.4,1.9c-0.9-0.2-1.6-0.9-2.4-1.7C19.5-20.7,18.1-22.1,15-22.1L15-22.1z M8.8-14.6
	c-3.3,0-5.4,1.7-6.2,5c1.2-1.7,2.7-2.3,4.4-1.9c0.9,0.2,1.6,0.9,2.4,1.7c1.2,1.2,2.6,2.7,5.7,2.7c3.3,0,5.4-1.7,6.2-5
	c-1.2,1.7-2.7,2.3-4.4,1.9c-0.9-0.2-1.6-0.9-2.4-1.7C13.3-13.2,11.8-14.6,8.8-14.6L8.8-14.6z"/>
</svg>
