<?xml version="1.0" encoding="utf-8"?>
<!-- Generator: Adobe Illustrator 24.0.1, SVG Export Plug-In . SVG Version: 6.00 Build 0)  -->
<svg version="1.1" id="Layer_1" xmlns="http://www.w3.org/2000/svg" xmlns:xlink="http://www.w3.org/1999/xlink" x="0px" y="0px"
	 viewBox="0 0 2500 2500" style="enable-background:new 0 0 2500 2500;" xml:space="preserve">
<style type="text/css">
	.st0{fill:#007ACC;}
	.st1{fill:#FFFFFF;}
</style>
<path class="st0" d="M-3-18v-18H33V0H-3"/>
<path class="st1" d="M4.9-17.9v1.5h4.7v13.3h3.3v-13.3h4.7v-1.4c0-0.8,0-1.5,0-1.5c0,0-2.8,0-6.3,0l-6.3,0L4.9-17.9L4.9-17.9
	L4.9-17.9z M25.9-19.4c0.9,0.2,1.6,0.6,2.2,1.3c0.3,0.4,0.8,1,0.9,1.1c0,0.1-1.6,1.1-2.5,1.7c0,0-0.2-0.1-0.3-0.4
	c-0.5-0.7-0.9-1-1.7-1c-1.1-0.1-1.8,0.5-1.8,1.4c0,0.3,0.1,0.4,0.2,0.7c0.2,0.5,0.7,0.8,2.1,1.4c2.6,1.1,3.7,1.8,4.4,2.9
	c0.8,1.2,0.9,3,0.4,4.4c-0.6,1.5-2,2.5-4,2.8c-0.6,0.1-2.1,0.1-2.7,0c-1.4-0.3-2.8-1-3.7-1.9c-0.3-0.4-1-1.3-0.9-1.4l0.3-0.2
	l1.3-0.8l1-0.6l0.2,0.3c0.3,0.5,1,1.1,1.3,1.3c1.2,0.6,2.7,0.5,3.5-0.2c0.3-0.3,0.5-0.6,0.5-1.1c0-0.4-0.1-0.6-0.3-0.9
	c-0.3-0.4-0.9-0.7-2.5-1.4c-1.9-0.8-2.7-1.3-3.4-2.1c-0.4-0.5-0.8-1.2-1-1.8c-0.1-0.5-0.2-1.8-0.1-2.3c0.4-1.8,1.7-3.1,3.7-3.4
	C23.8-19.6,25.3-19.6,25.9-19.4L25.9-19.4L25.9-19.4z"/>
</svg>
