<?xml version="1.0" encoding="utf-8"?>
<!-- Generator: Adobe Illustrator 24.0.1, SVG Export Plug-In . SVG Version: 6.00 Build 0)  -->
<svg version="1.1" id="Layer_1" xmlns="http://www.w3.org/2000/svg" xmlns:xlink="http://www.w3.org/1999/xlink" x="0px" y="0px"
	 viewBox="0 0 2500 2500" style="enable-background:new 0 0 2500 2500;" xml:space="preserve">
<style type="text/css">
	.st0{fill:#007ACC;}
	.st1{fill:#FFFFFF;}
</style>
<path fill="#007ACC" d="M-1.6-16.6v-16.6h33.2V0H-1.6"/>
<path fill="#FFFFFF" d="M5.7-16.5v1.4H10v12.3h3v-12.3h4.3v-1.3c0-0.7,0-1.4,0-1.4s-2.6,0-5.8,0H5.8L5.7-16.5L5.7-16.5L5.7-16.5z
	 M25.1-17.9c0.8,0.2,1.5,0.6,2,1.2c0.3,0.4,0.7,0.9,0.8,1c0,0.1-1.5,1-2.3,1.6c0,0-0.2-0.1-0.3-0.4c-0.5-0.6-0.8-0.9-1.6-0.9
	c-1-0.1-1.7,0.5-1.7,1.3c0,0.3,0.1,0.4,0.2,0.6c0.2,0.5,0.6,0.7,1.9,1.3c2.4,1,3.4,1.7,4.1,2.7c0.7,1.1,0.8,2.8,0.4,4.1
	c-0.6,1.4-1.8,2.3-3.7,2.6c-0.6,0.1-1.9,0.1-2.5,0c-1.3-0.3-2.6-0.9-3.4-1.8c-0.3-0.4-0.9-1.2-0.8-1.3l0.3-0.2l1.2-0.7l0.9-0.6
	l0.2,0.3c0.3,0.5,0.9,1,1.2,1.2c1.1,0.6,2.5,0.5,3.2-0.2c0.3-0.3,0.5-0.6,0.5-1c0-0.4-0.1-0.6-0.3-0.8c-0.3-0.4-0.8-0.6-2.3-1.3
	c-1.8-0.7-2.5-1.2-3.1-1.9c-0.4-0.5-0.7-1.1-0.9-1.7C19-13.3,18.9-14.5,19-15c0.4-1.7,1.6-2.9,3.4-3.1
	C23.1-18.1,24.5-18.1,25.1-17.9L25.1-17.9L25.1-17.9z"/>
</svg>
