<?xml version="1.0" encoding="utf-8"?>
<!-- Generator: Adobe Illustrator 24.0.1, SVG Export Plug-In . SVG Version: 6.00 Build 0)  -->
<svg version="1.1" id="Layer_1" xmlns="http://www.w3.org/2000/svg" xmlns:xlink="http://www.w3.org/1999/xlink" x="0px" y="0px"
	 viewBox="0 0 882 585" style="enable-background:new 0 0 882 585;" xml:space="preserve">
<style type="text/css">
	.st0{fill:#808080;}
	.st1{fill:#4C4C4C;}
</style>
<path d="M14.9,0l11.3-6.5L21.9-9l-4.4,2.6c-0.2,0.1-0.3,0-0.3-0.2v-6c0-0.2,0.1-0.3,0.2-0.4l5.2-3c0.2-0.1,0.3,0,0.3,0.2v5.1
	l4.3,2.5v-13.1l-12.3,7.1C14.9-14.2,14.9,0,14.9,0z"/>
<path fill="#808080" d="M16-27.9v5l4.4,2.6c0.2,0.1,0.2,0.3,0,0.4l-5.2,3c-0.1,0.1-0.3,0.1-0.5,0l-5.2-3c-0.1-0.1-0.2-0.2-0.1-0.3
	c0-0.1,0.1-0.1,0.1-0.1l4.4-2.6v-5L2.6-21.4l12.3,7.1l12.3-7.1L16-27.9z"/>
<path fill="#4C4C4C" d="M12.4-6.4L8-9L3.7-6.5L15,0v-14.2L2.6-21.4v13l4.3-2.5V-16c0-0.2,0.2-0.3,0.3-0.2l0,0l5.2,3
	c0.2,0.1,0.2,0.2,0.2,0.4v6C12.8-6.5,12.6-6.3,12.4-6.4z"/>
</svg>
