<?xml version="1.0" encoding="utf-8"?>
<!-- Generator: Adobe Illustrator 24.0.1, SVG Export Plug-In . SVG Version: 6.00 Build 0)  -->
<svg version="1.1" id="Layer_1" xmlns="http://www.w3.org/2000/svg" xmlns:xlink="http://www.w3.org/1999/xlink" x="0px" y="0px"
	 viewBox="0 0 2500 2500" style="enable-background:new 0 0 2500 2500;" xml:space="preserve">
<path d="M14.7-28.3c6.9,0,12.5,5.6,12.5,12.5S21.6-3.2,14.7-3.2S2.2-8.9,2.2-15.8S7.8-28.3,14.7-28.3 M14.7-28.9
	C7.4-28.9,1.5-23,1.5-15.8S7.4-2.6,14.7-2.6s13.1-5.9,13.1-13.1S22-28.9,14.7-28.9z"/>
<path d="M13.8-23.6c0,0-3,0.8-5.6,3.7s-3,4.8-3,6.3c0.6-1,4.2-6.5,5.1-3.9v6.3c0,0,0,0.8-1.3,0.5c0.4,0.7,2.4,2.5,6,2.9
	c0.8-0.8,1.9-2,1.9-2l1.8,1.5c0,0,3.2-2.1,4.5-5.1c-1.2,0.8-2.6,2.6-3.4,1.3v-7.6c0,0,1.9-2.9,2.2-3c-0.8,0.1-3.4,1-4.9,2.8
	c-0.4-0.4-1.5-0.4-1.5-0.4s0.9,0.7,0.9,1.4c0,0.7,0,6.2,0,6.8c-0.6,0.6-1.2,0.9-1.6,0.9c-1,0-1.2-0.3-1.5-0.7v-8
	c0,0-0.5,0.4-0.8-0.2S12-22.2,13.8-23.6z"/>
</svg>
