<?xml version="1.0" encoding="utf-8"?>
<!-- Generator: Adobe Illustrator 24.0.1, SVG Export Plug-In . SVG Version: 6.00 Build 0)  -->
<svg version="1.1" id="Layer_1" xmlns="http://www.w3.org/2000/svg" xmlns:xlink="http://www.w3.org/1999/xlink" x="0px" y="0px"
	 viewBox="0 0 120 60" style="enable-background:new 0 0 120 60;" xml:space="preserve">
<style type="text/css">
	.st0{fill:#4B4B4B;}
	.st1{fill:#6FDA44;}
</style>
<path fill="#4B4B4B" d="M25.1-14.9c-2.8,0-5.1,2.3-5.1,5.2s2.3,5.2,5.1,5.1s5.1-2.3,5.1-5.2C30.2-12.6,27.9-14.9,25.1-14.9L25.1-14.9z
	 M25.1-6.7c-0.8,0-1.6-0.3-2.1-0.9c-0.6-0.6-0.9-1.3-0.9-2.1c0-0.8,0.3-1.6,0.9-2.1s1.3-0.9,2.1-0.9c0.8,0,1.6,0.3,2.1,0.9
	c0.6,0.6,0.9,1.3,0.9,2.1C28.1-8.1,26.7-6.7,25.1-6.7L25.1-6.7z M36.4-12.5c-1.5,0-2.6,1.2-2.6,2.7l0,4.9l-2.2,0l0-9.8l2.2,0l0,1.5
	c0,0,1-1.5,2.9-1.5l0.6,0l0,2.2L36.4-12.5z M14.1-14.5l1.7,6.7l1.8-6.7l2.2,0l-2.8,9.8l-2.2,0l-1.8-6.8l-1.7,6.8l-2.2,0l-2.9-9.8
	l2.2,0l1.9,6.7l1.6-6.7L14.1-14.5z M43.9-10.2c1.5-0.9,2.6-2.6,2.6-4.5l-2.2,0c0,1.7-1.3,3-2.9,3l-0.3,0l0-7.7l-2.2,0l0.1,14.5
	l2.2,0l0-4.6l0.3,0c0.3,0,0.5,0.1,0.6,0.3L45-4.9l2.6,0L43.9-10.2z"/>
<path fill="#6FDA44" d="M1.2-14.8c-2.4,0-4.3,1.6-5,4.2c-1.2-1.8-2.1-3.8-2.6-5.5l-2.6,0l0,6.8c0,1.3-1.1,2.4-2.4,2.4
	c-1.3,0-2.4-1.1-2.4-2.4l0-6.8l-2.6,0l0,6.8c0,2.8,2.3,5,5,5c2.7,0,5-2.3,5-5.1l0-1.1c0.5,1,1.2,2.1,1.9,3.1L-6,0l2.6,0l1.1-5.4
	c1,0.6,2.2,1,3.5,1c2.8,0,5.1-2.3,5.1-5.3C6.3-12.5,4-14.8,1.2-14.8L1.2-14.8z M1.2-7.1c-1,0-2-0.4-2.9-1.1l0.3-1v-0.1
	c0.2-1.1,0.8-2.9,2.7-3c1.4,0,2.6,1.1,2.6,2.5C3.8-8.2,2.6-7.1,1.2-7.1L1.2-7.1z"/>
</svg>
