{
	"asset":{
		"generator":"Khronos glTF Blender I/O v3.6.27",
		"version":"2.0"
	},
	"scene":0,
	"scenes":[
		{
			"name":"Scene",
			"nodes":[
				0,
				1,
				2,
				3
			]
		}
	],
	"nodes":[
		{
			"mesh":0,
			"name":"Plane.002"
		},
		{
			"mesh":1,
			"name":"Pie",
			"rotation":[
				0,
				-0.48114562034606934,
				0,
				0.8766406774520874
			],
			"translation":[
				-11.634515762329102,
				0.21854844689369202,
				-3.6329832077026367
			]
		},
		{
			"mesh":2,
			"name":"Bars",
			"rotation":[
				0.051892176270484924,
				-0.09086978435516357,
				0.20193368196487427,
				0.9737929105758667
			],
			"scale":[
				0.7711127996444702,
				0.771112859249115,
				0.7711127400398254
			],
			"translation":[
				-7.2403388023376465,
				1.4446778297424316,
				7.556878089904785
			]
		},
		{
			"mesh":3,
			"name":"Line",
			"rotation":[
				0.039098870009183884,
				0.12382741272449493,
				0.15823718905448914,
				0.9788253307342529
			],
			"scale":[
				0.5336904525756836,
				0.5336904525756836,
				0.5336905121803284
			],
			"translation":[
				-10.352949142456055,
				1.985141634941101,
				3.3719494342803955
			]
		}
	],
	"materials":[
		{
			"doubleSided":true,
			"name":"Material.001",
			"pbrMetallicRoughness":{
				"baseColorFactor":[
					0.03998440131545067,
					0.1320163905620575,
					0.8000000715255737,
					1
				],
				"metallicFactor":0,
				"roughnessFactor":0.5
			}
		},
		{
			"doubleSided":true,
			"name":"Material.004",
			"pbrMetallicRoughness":{
				"baseColorFactor":[
					0,
					0.8000000715255737,
					0.06737228482961655,
					1
				],
				"metallicFactor":0,
				"roughnessFactor":0.5
			}
		},
		{
			"doubleSided":true,
			"name":"Red",
			"pbrMetallicRoughness":{
				"baseColorFactor":[
					0.8000000715255737,
					0.06536176055669785,
					0.05133732408285141,
					1
				],
				"metallicFactor":0,
				"roughnessFactor":0.5
			}
		}
	],
	"meshes":[
		{
			"name":"Plane.002",
			"primitives":[
				{
					"attributes":{
						"POSITION":0,
						"NORMAL":1,
						"TEXCOORD_0":2
					},
					"indices":3
				}
			]
		},
		{
			"name":"Pie",
			"primitives":[
				{
					"attributes":{
						"POSITION":4,
						"NORMAL":5,
						"TEXCOORD_0":6
					},
					"indices":7,
					"material":0
				}
			]
		},
		{
			"name":"Bars",
			"primitives":[
				{
					"attributes":{
						"POSITION":8,
						"NORMAL":9,
						"TEXCOORD_0":10
					},
					"indices":11,
					"material":1
				}
			]
		},
		{
			"name":"Line",
			"primitives":[
				{
					"attributes":{
						"POSITION":12,
						"NORMAL":13,
						"TEXCOORD_0":14
					},
					"indices":15,
					"material":2
				}
			]
		}
	],
	"accessors":[
		{
			"bufferView":0,
			"componentType":5126,
			"count":4,
			"max":[
				100,
				0,
				100
			],
			"min":[
				-100,
				0,
				-100
			],
			"type":"VEC3"
		},
		{
			"bufferView":1,
			"componentType":5126,
			"count":4,
			"type":"VEC3"
		},
		{
			"bufferView":2,
			"componentType":5126,
			"count":4,
			"type":"VEC2"
		},
		{
			"bufferView":3,
			"componentType":5123,
			"count":6,
			"type":"SCALAR"
		},
		{
			"bufferView":4,
			"componentType":5126,
			"count":648,
			"max":[
				3.4480385780334473,
				1.977782130241394,
				3.4480385780334473
			],
			"min":[
				-3.4480385780334473,
				0,
				-3.4480385780334473
			],
			"type":"VEC3"
		},
		{
			"bufferView":5,
			"componentType":5126,
			"count":648,
			"type":"VEC3"
		},
		{
			"bufferView":6,
			"componentType":5126,
			"count":648,
			"type":"VEC2"
		},
		{
			"bufferView":7,
			"componentType":5123,
			"count":1248,
			"type":"SCALAR"
		},
		{
			"bufferView":8,
			"componentType":5126,
			"count":96,
			"max":[
				0.41333675384521484,
				6.792167663574219,
				0.41333675384521484
			],
			"min":[
				-0.41333675384521484,
				0,
				-6.413336753845215
			],
			"type":"VEC3"
		},
		{
			"bufferView":9,
			"componentType":5126,
			"count":96,
			"type":"VEC3"
		},
		{
			"bufferView":10,
			"componentType":5126,
			"count":96,
			"type":"VEC2"
		},
		{
			"bufferView":11,
			"componentType":5123,
			"count":144,
			"type":"SCALAR"
		},
		{
			"bufferView":12,
			"componentType":5126,
			"count":1403,
			"max":[
				0.8173715472221375,
				10.110041618347168,
				0.04949750006198883
			],
			"min":[
				-2.199329137802124,
				-0.43000003695487976,
				-13.290550231933594
			],
			"type":"VEC3"
		},
		{
			"bufferView":13,
			"componentType":5126,
			"count":1403,
			"type":"VEC3"
		},
		{
			"bufferView":14,
			"componentType":5126,
			"count":1403,
			"type":"VEC2"
		},
		{
			"bufferView":15,
			"componentType":5123,
			"count":7920,
			"type":"SCALAR"
		}
	],
	"bufferViews":[
		{
			"buffer":0,
			"byteLength":48,
			"byteOffset":0,
			"target":34962
		},
		{
			"buffer":0,
			"byteLength":48,
			"byteOffset":48,
			"target":34962
		},
		{
			"buffer":0,
			"byteLength":32,
			"byteOffset":96,
			"target":34962
		},
		{
			"buffer":0,
			"byteLength":12,
			"byteOffset":128,
			"target":34963
		},
		{
			"buffer":0,
			"byteLength":7776,
			"byteOffset":140,
			"target":34962
		},
		{
			"buffer":0,
			"byteLength":7776,
			"byteOffset":7916,
			"target":34962
		},
		{
			"buffer":0,
			"byteLength":5184,
			"byteOffset":15692,
			"target":34962
		},
		{
			"buffer":0,
			"byteLength":2496,
			"byteOffset":20876,
			"target":34963
		},
		{
			"buffer":0,
			"byteLength":1152,
			"byteOffset":23372,
			"target":34962
		},
		{
			"buffer":0,
			"byteLength":1152,
			"byteOffset":24524,
			"target":34962
		},
		{
			"buffer":0,
			"byteLength":768,
			"byteOffset":25676,
			"target":34962
		},
		{
			"buffer":0,
			"byteLength":288,
			"byteOffset":26444,
			"target":34963
		},
		{
			"buffer":0,
			"byteLength":16836,
			"byteOffset":26732,
			"target":34962
		},
		{
			"buffer":0,
			"byteLength":16836,
			"byteOffset":43568,
			"target":34962
		},
		{
			"buffer":0,
			"byteLength":11224,
			"byteOffset":60404,
			"target":34962
		},
		{
			"buffer":0,
			"byteLength":15840,
			"byteOffset":71628,
			"target":34963
		}
	],
	"buffers":[
		{
			"byteLength":87468,
			"uri":"data:application/octet-stream;base64,"
		}
	]
}
